<?xml version="1.0" encoding="iso-8859-1"?>
<!-- Generator: Adobe Illustrator 19.0.0, SVG Export Plug-In . SVG Version: 6.00 Build 0)  -->
<svg xmlns="http://www.w3.org/2000/svg" xmlns:xlink="http://www.w3.org/1999/xlink" version="1.1" id="Layer_1" x="0px" y="0px" viewBox="0 0 454.479 454.479" style="enable-background:new 0 0 454.479 454.479;" xml:space="preserve" width="512" height="512">
<g>
	<rect x="7.5" y="393.4" style="fill:#CCCCCC;" width="439.478" height="25.499"/>
	<path style="fill:#FFD039;" d="M411.572,216.388v174.01h-36.34h-47.66v-141v-33.01h21.33c0-11.41,9.26-20.66,20.67-20.66   c11.41,0,20.67,9.25,20.67,20.66H411.572z"/>
	<path style="fill:#FFD039;" d="M359.282,35.588c27.75,0,50.25,22.49,50.25,50.24s-22.5,50.25-50.25,50.25s-50.25-22.5-50.25-50.25   S331.532,35.588,359.282,35.588z"/>
	<path style="fill:#EAB932;" d="M336.902,195.728h32.67c-11.41,0-20.67,9.25-20.67,20.66h-21.33h-11.33   C316.252,204.968,325.492,195.728,336.902,195.728z"/>
	<polygon style="fill:#0FBC30;" points="327.572,249.398 327.572,390.398 291.232,390.398 243.572,390.398 243.572,249.398    271.572,225.728 271.572,195.728 283.902,195.728 299.572,195.728 299.572,216.398 299.572,225.728  "/>
	<polygon style="fill:#EAB932;" points="327.572,216.388 327.572,249.398 299.572,225.728 299.572,216.398 316.242,216.398    316.242,216.388  "/>
	<rect x="238.902" y="195.728" style="fill:#07A521;" width="32.67" height="30"/>
	<path style="fill:#07A521;" d="M271.572,225.728l-28,23.67l-15.78-13.34c-0.18-0.16-0.37-0.31-0.55-0.47l11.66-9.86H271.572z"/>
	<path style="fill:#ED2E2E;" d="M243.572,249.398v141h-36.34h-47.66v-141l15.78-13.34c3.87-3.27,6.93-7.32,9.02-11.82   c2.08-4.49,3.2-9.44,3.2-14.51c0-3.86,1.57-7.36,4.1-9.9c2.53-2.53,6.03-4.1,9.9-4.1c7.73,0,14,6.27,14,14   c0,9.9,4.26,19.32,11.67,25.86c0.18,0.16,0.37,0.31,0.55,0.47L243.572,249.398z"/>
	<path style="fill:#D82525;" d="M166.572,195.728h35c-3.87,0-7.37,1.57-9.9,4.1c-2.53,2.54-4.1,6.04-4.1,9.9   c0,5.07-1.12,10.02-3.2,14.51c-2.09,4.5-5.15,8.55-9.02,11.82l-15.78,13.34l-17.56-14.84c6.73-6.48,10.56-15.44,10.56-24.83   c0-3.86,1.57-7.36,4.1-9.9C159.202,197.298,162.702,195.728,166.572,195.728z"/>
	<polygon style="fill:#3B9DFF;" points="142.012,234.558 159.572,249.398 159.572,390.398 126.902,390.398 75.572,390.398    75.572,249.398 103.572,225.728 103.572,195.728 115.902,195.728 131.572,195.728 131.572,225.728  "/>
	<rect x="70.902" y="195.728" style="fill:#1E79C4;" width="32.67" height="30"/>
	<polygon style="fill:#1E79C4;" points="103.572,225.728 75.572,249.398 42.902,249.398 70.902,225.728  "/>
	<rect x="42.902" y="249.398" style="fill:#1E79C4;" width="32.67" height="141"/>
	<g>
		<path style="fill:#333333;" d="M7.5,397.896h439.479c4.143,0,7.5-3.358,7.5-7.5s-3.357-7.5-7.5-7.5h-27.906V216.393    c0-4.142-3.357-7.5-7.5-7.5h-14.847c-3.292-11.902-14.219-20.667-27.153-20.667h-32.67c-12.931,0-23.854,8.764-27.146,20.667    h-2.684v-13.167c0-4.142-3.357-7.5-7.5-7.5h-60.67c-4.143,0-7.5,3.358-7.5,7.5v26.52l-3.464,2.929    c-3.136-4.483-4.866-9.854-4.866-15.449c0-11.855-9.645-21.5-21.5-21.5h-35c-11.855,0-21.5,9.645-21.5,21.5    c0,5.078-1.425,9.97-4.032,14.183l-1.968-1.664v-26.52c0-4.142-3.357-7.5-7.5-7.5H70.905c-4.143,0-7.5,3.358-7.5,7.5v26.52    l-25.342,21.423c-1.686,1.425-2.658,3.52-2.658,5.728v133.5H7.5c-4.143,0-7.5,3.358-7.5,7.5S3.357,397.896,7.5,397.896z     M320.072,223.893v9.343l-11.048-9.339L320.072,223.893z M382.739,216.393c0,4.142,3.357,7.5,7.5,7.5h13.833v159.003h-69v-133.5    v-25.503h13.833c4.143,0,7.5-3.358,7.5-7.5c0-7.26,5.906-13.167,13.167-13.167S382.739,209.132,382.739,216.393z M336.902,203.226    h7.797c-0.95,1.787-1.731,3.678-2.281,5.667h-16.318C328.481,205.473,332.432,203.226,336.902,203.226z M292.072,203.226v22.5    c0,2.208,0.973,4.303,2.658,5.728l25.342,21.423v130.02h-28.844h-40.156v-130.02l25.342-21.423    c1.686-1.425,2.658-3.52,2.658-5.728v-22.5H292.072z M264.072,203.226v15h-17.67v-15H264.072z M241.648,233.226h9.435    l-7.511,6.349l-4.717-3.988L241.648,233.226z M208.072,209.726c0,12.38,5.423,24.064,14.877,32.057l13.123,11.094v130.02h-28.844    h-40.156v-130.02l13.123-11.094c9.454-7.992,14.877-19.677,14.877-32.057c0-3.584,2.916-6.5,6.5-6.5    S208.072,206.142,208.072,209.726z M160.072,209.726c0-3.584,2.916-6.5,6.5-6.5h14.51c-0.652,2.052-1.01,4.235-1.01,6.5    c0,7.956-3.484,15.465-9.561,20.602l-10.939,9.248l-6.997-5.915C157.409,226.706,160.072,218.389,160.072,209.726z     M124.072,203.226v22.5c0,2.208,0.973,4.303,2.658,5.728l25.342,21.423v130.02h-25.167H83.072v-130.02l25.342-21.423    c1.686-1.425,2.658-3.52,2.658-5.728v-22.5H124.072z M96.072,203.226v15H78.405v-15H96.072z M73.65,233.226h9.433l-10.256,8.67    h-9.433L73.65,233.226z M50.405,256.896h17.667v126H50.405V256.896z"/>
		<path style="fill:#333333;" d="M446.979,411.395H7.5c-4.143,0-7.5,3.358-7.5,7.5s3.357,7.5,7.5,7.5h439.479    c4.143,0,7.5-3.358,7.5-7.5S451.121,411.395,446.979,411.395z"/>
		<path style="fill:#333333;" d="M101.905,254.226c-4.143,0-7.5,3.358-7.5,7.5v16c0,4.142,3.357,7.5,7.5,7.5s7.5-3.358,7.5-7.5v-16    C109.405,257.584,106.048,254.226,101.905,254.226z"/>
		<path style="fill:#333333;" d="M133.239,285.226c4.143,0,7.5-3.358,7.5-7.5v-16c0-4.142-3.357-7.5-7.5-7.5s-7.5,3.358-7.5,7.5v16    C125.739,281.868,129.097,285.226,133.239,285.226z"/>
		<path style="fill:#333333;" d="M101.905,332.893c-4.143,0-7.5,3.358-7.5,7.5v16c0,4.142,3.357,7.5,7.5,7.5s7.5-3.358,7.5-7.5v-16    C109.405,336.25,106.048,332.893,101.905,332.893z"/>
		<path style="fill:#333333;" d="M133.239,363.893c4.143,0,7.5-3.358,7.5-7.5v-16c0-4.142-3.357-7.5-7.5-7.5s-7.5,3.358-7.5,7.5v16    C125.739,360.535,129.097,363.893,133.239,363.893z"/>
		<path style="fill:#333333;" d="M101.905,293.559c-4.143,0-7.5,3.358-7.5,7.5v16c0,4.142,3.357,7.5,7.5,7.5s7.5-3.358,7.5-7.5v-16    C109.405,296.917,106.048,293.559,101.905,293.559z"/>
		<path style="fill:#333333;" d="M133.239,324.559c4.143,0,7.5-3.358,7.5-7.5v-16c0-4.142-3.357-7.5-7.5-7.5s-7.5,3.358-7.5,7.5v16    C125.739,321.201,129.097,324.559,133.239,324.559z"/>
		<path style="fill:#333333;" d="M185.905,254.226c-4.143,0-7.5,3.358-7.5,7.5v16c0,4.142,3.357,7.5,7.5,7.5s7.5-3.358,7.5-7.5v-16    C193.405,257.584,190.048,254.226,185.905,254.226z"/>
		<path style="fill:#333333;" d="M217.239,285.226c4.143,0,7.5-3.358,7.5-7.5v-16c0-4.142-3.357-7.5-7.5-7.5s-7.5,3.358-7.5,7.5v16    C209.739,281.868,213.097,285.226,217.239,285.226z"/>
		<path style="fill:#333333;" d="M185.905,332.893c-4.143,0-7.5,3.358-7.5,7.5v16c0,4.142,3.357,7.5,7.5,7.5s7.5-3.358,7.5-7.5v-16    C193.405,336.25,190.048,332.893,185.905,332.893z"/>
		<path style="fill:#333333;" d="M217.239,363.893c4.143,0,7.5-3.358,7.5-7.5v-16c0-4.142-3.357-7.5-7.5-7.5s-7.5,3.358-7.5,7.5v16    C209.739,360.535,213.097,363.893,217.239,363.893z"/>
		<path style="fill:#333333;" d="M185.905,293.559c-4.143,0-7.5,3.358-7.5,7.5v16c0,4.142,3.357,7.5,7.5,7.5s7.5-3.358,7.5-7.5v-16    C193.405,296.917,190.048,293.559,185.905,293.559z"/>
		<path style="fill:#333333;" d="M217.239,324.559c4.143,0,7.5-3.358,7.5-7.5v-16c0-4.142-3.357-7.5-7.5-7.5s-7.5,3.358-7.5,7.5v16    C209.739,321.201,213.097,324.559,217.239,324.559z"/>
		<path style="fill:#333333;" d="M269.905,254.226c-4.143,0-7.5,3.358-7.5,7.5v16c0,4.142,3.357,7.5,7.5,7.5s7.5-3.358,7.5-7.5v-16    C277.405,257.584,274.048,254.226,269.905,254.226z"/>
		<path style="fill:#333333;" d="M301.239,285.226c4.143,0,7.5-3.358,7.5-7.5v-16c0-4.142-3.357-7.5-7.5-7.5s-7.5,3.358-7.5,7.5v16    C293.739,281.868,297.097,285.226,301.239,285.226z"/>
		<path style="fill:#333333;" d="M269.905,332.893c-4.143,0-7.5,3.358-7.5,7.5v16c0,4.142,3.357,7.5,7.5,7.5s7.5-3.358,7.5-7.5v-16    C277.405,336.25,274.048,332.893,269.905,332.893z"/>
		<path style="fill:#333333;" d="M301.239,363.893c4.143,0,7.5-3.358,7.5-7.5v-16c0-4.142-3.357-7.5-7.5-7.5s-7.5,3.358-7.5,7.5v16    C293.739,360.535,297.097,363.893,301.239,363.893z"/>
		<path style="fill:#333333;" d="M269.905,293.559c-4.143,0-7.5,3.358-7.5,7.5v16c0,4.142,3.357,7.5,7.5,7.5s7.5-3.358,7.5-7.5v-16    C277.405,296.917,274.048,293.559,269.905,293.559z"/>
		<path style="fill:#333333;" d="M301.239,324.559c4.143,0,7.5-3.358,7.5-7.5v-16c0-4.142-3.357-7.5-7.5-7.5s-7.5,3.358-7.5,7.5v16    C293.739,321.201,297.097,324.559,301.239,324.559z"/>
		<path style="fill:#333333;" d="M353.905,254.226c-4.143,0-7.5,3.358-7.5,7.5v16c0,4.142,3.357,7.5,7.5,7.5s7.5-3.358,7.5-7.5v-16    C361.405,257.584,358.048,254.226,353.905,254.226z"/>
		<path style="fill:#333333;" d="M385.239,285.226c4.143,0,7.5-3.358,7.5-7.5v-16c0-4.142-3.357-7.5-7.5-7.5s-7.5,3.358-7.5,7.5v16    C377.739,281.868,381.097,285.226,385.239,285.226z"/>
		<path style="fill:#333333;" d="M353.905,332.893c-4.143,0-7.5,3.358-7.5,7.5v16c0,4.142,3.357,7.5,7.5,7.5s7.5-3.358,7.5-7.5v-16    C361.405,336.25,358.048,332.893,353.905,332.893z"/>
		<path style="fill:#333333;" d="M385.239,363.893c4.143,0,7.5-3.358,7.5-7.5v-16c0-4.142-3.357-7.5-7.5-7.5s-7.5,3.358-7.5,7.5v16    C377.739,360.535,381.097,363.893,385.239,363.893z"/>
		<path style="fill:#333333;" d="M353.905,293.559c-4.143,0-7.5,3.358-7.5,7.5v16c0,4.142,3.357,7.5,7.5,7.5s7.5-3.358,7.5-7.5v-16    C361.405,296.917,358.048,293.559,353.905,293.559z"/>
		<path style="fill:#333333;" d="M385.239,324.559c4.143,0,7.5-3.358,7.5-7.5v-16c0-4.142-3.357-7.5-7.5-7.5s-7.5,3.358-7.5,7.5v16    C377.739,321.201,381.097,324.559,385.239,324.559z"/>
		<path style="fill:#333333;" d="M359.28,143.579c31.843,0,57.748-25.905,57.748-57.748s-25.905-57.748-57.748-57.748    c-31.842,0-57.747,25.905-57.747,57.748S327.438,143.579,359.28,143.579z M359.28,43.084c23.571,0,42.748,19.176,42.748,42.748    s-19.177,42.748-42.748,42.748s-42.747-19.176-42.747-42.748S335.709,43.084,359.28,43.084z"/>
		<circle style="fill:#333333;" cx="369.572" cy="216.558" r="7.5"/>
	</g>
</g>















</svg>
