<?xml version="1.0" encoding="iso-8859-1"?>
<!-- Generator: Adobe Illustrator 19.0.0, SVG Export Plug-In . SVG Version: 6.00 Build 0)  -->
<svg xmlns="http://www.w3.org/2000/svg" xmlns:xlink="http://www.w3.org/1999/xlink" version="1.1" id="Layer_1" x="0px" y="0px" viewBox="0 0 454.478 454.478" style="enable-background:new 0 0 454.478 454.478;" xml:space="preserve" width="512" height="512">
<g>
	<rect x="7.5" y="374.198" style="fill:#3B9DFF;" width="439.478" height="30.529"/>
	<circle style="fill:#FFD039;" cx="345.612" cy="95.868" r="50.25"/>
	<polygon style="fill:#B3B3B3;" points="101.122,334.188 105.802,335.428 144.572,345.688 144.572,375.358 53.902,375.358    53.902,321.688  "/>
	<polygon style="fill:#B3B3B3;" points="426.162,375.358 144.572,375.358 144.572,345.688 161.242,345.688 298.572,345.688    333.242,345.688 361.912,345.688 370.572,353.688 404.492,353.688  "/>
	<path style="fill:#E6E6E6;" d="M357.902,309.028c0,0,35.34-18.54,78-11.34c-19.86,18.94-65.33,56-65.33,56L357.902,309.028z"/>
	<path style="fill:#F2F2F2;" d="M357.902,309.028l12.67,44.66l-8.66-8h-28.67v-1.5c0,0-12-33.16-18-47.16   c5.4,0,11.39,1.08,17.14,2.59C345.812,303.148,357.902,309.028,357.902,309.028z"/>
	<path style="fill:#E6E6E6;" d="M252.472,280.148c1.2-0.54,2.4-1.07,3.61-1.59l42.49,66.37v0.76h-137.33v-0.43   c0,0,36.73-39.37,86.47-62.92C249.282,281.598,250.872,280.858,252.472,280.148z"/>
	<path style="fill:#F2F2F2;" d="M351.902,265.688c-3.85,6.33-11.67,20.02-19.52,33.93c-5.75-1.51-11.74-2.59-17.14-2.59   c6,14,18,47.16,18,47.16v1.5h-34.67v-0.76l-42.49-66.37C285.632,265.848,319.102,258.378,351.902,265.688z"/>
	<path style="fill:#F2F2F2;" d="M91.582,267.648c0.45,3.24,0.92,6.55,1.39,9.89c-27.61,12.52-39.07,44.15-39.07,44.15l-28-58.66   C56.572,256.358,91.582,267.648,91.582,267.648z"/>
	<path style="fill:#E6E6E6;" d="M101.122,334.188l-47.22-12.5c0,0,11.46-31.63,39.07-44.15   C96.522,302.698,100.392,329.188,101.122,334.188z"/>
	<path style="fill:#F2F2F2;" d="M143.432,248.058c0.9,4.76,1.82,9.64,2.74,14.56c-2.55,3.14-31.58,39.41-40.09,71.74l-0.28,1.07   l-4.68-1.24c-0.73-5-4.6-31.49-8.15-56.65c-0.47-3.34-0.94-6.65-1.39-9.89c-1.88-13.49-3.52-25.64-4.34-32.62   C118.202,235.658,141.122,246.888,143.432,248.058z"/>
	<path style="fill:#E6E6E6;" d="M161.242,345.258v0.43h-16.67l-38.77-10.26l0.28-1.07c8.51-32.33,37.54-68.6,40.09-71.74   C153.652,302.578,161.242,345.258,161.242,345.258z"/>
	<path style="fill:#F2F2F2;" d="M146.172,262.618c-0.92-4.92-1.84-9.8-2.74-14.56c-4.8-25.26-9.14-46.96-10.86-52.37   c73.63,9.35,107.82,71.46,115.14,86.65c-49.74,23.55-86.47,62.92-86.47,62.92S153.652,302.578,146.172,262.618z"/>
	<g>
		<path style="fill:#333333;" d="M7.5,382.86h439.478c4.142,0,7.5-3.358,7.5-7.5s-3.358-7.5-7.5-7.5H429.27l-19.47-19.47    c-1.406-1.407-3.314-2.197-5.303-2.197h-13.039c15.114-12.568,37.148-31.182,49.622-43.07c2.056-1.959,2.829-4.91,1.998-7.625    c-0.831-2.714-3.124-4.728-5.923-5.2c-37.38-6.309-69.075,5.853-79.304,10.451c-3.158-1.4-8.285-3.545-14.326-5.59    c6.908-12.174,12.078-21.118,14.786-25.571c1.257-2.066,1.44-4.611,0.493-6.835c-0.947-2.225-2.909-3.856-5.269-4.382    c-30.372-6.768-64.157-2.294-100.415,13.301c-0.7,0.301-1.336,0.709-1.903,1.193c-0.039-0.106-0.083-0.208-0.121-0.315    c-5.402-9.864-15.418-25.719-30.794-41.036c-24.613-24.52-53.812-39.075-86.785-43.262c-2.536-0.322-5.069,0.673-6.708,2.641    c-1.639,1.967-2.16,4.635-1.383,7.075c1.292,4.06,4.332,18.812,8.023,37.885c-10.672-3.708-26.871-7.931-46.056-8.318    c-2.129-0.027-4.248,0.853-5.705,2.458c-1.457,1.605-2.148,3.763-1.895,5.916c0.55,4.678,1.497,11.939,2.823,21.642    c-13.4-2.998-36.639-6.561-58.304-1.849c-2.239,0.487-4.133,1.97-5.141,4.028c-1.009,2.058-1.021,4.463-0.034,6.531l27.269,57.134    v44.469H7.5c-4.142,0-7.5,3.358-7.5,7.5S3.358,382.86,7.5,382.86z M87.106,289.592c1.869,13.126,3.68,25.648,4.956,34.443    l-27.612-7.309C68.399,309.227,75.791,297.707,87.106,289.592z M152.362,338.193h-6.813l-30.366-8.038    c6.131-18.123,18.085-37.021,26.743-49.332C145.846,302.03,149.649,323.045,152.362,338.193z M285.354,338.193h-41.13    c0.532-6.792,2.748-26.805,11.216-46.726L285.354,338.193z M229.18,338.193h-49.809c12.468-11.3,33.256-28.405,58.341-42.287    C231.181,315.195,229.554,332.529,229.18,338.193z M408.057,367.86H152.072v-14.667h206.907l6.503,6.009    c1.386,1.28,3.203,1.991,5.09,1.991h30.818L408.057,367.86z M326.958,306.001c9.887,2.192,19.852,6.279,24.677,8.406l6.745,23.786    h-19.343C336.697,331.777,331.518,317.688,326.958,306.001z M418.337,303.559c-14.485,12.81-32.947,28.202-43.676,37.064    l-7.775-27.419C375.901,309.521,395.157,303.07,418.337,303.559z M339.938,271.219c-3.476,6.002-7.577,13.206-11.323,19.824    c-4.529-0.926-9.094-1.517-13.376-1.517c-2.521,0-4.874,1.267-6.261,3.371c-1.388,2.105-1.625,4.766-0.632,7.083    c3.982,9.291,10.758,27.46,14.715,38.212h-19.896l-35.908-56.09C293.31,272.078,317.675,268.431,339.938,271.219z     M209.715,242.138c13.758,13.706,22.807,27.83,27.813,36.862c-32.058,16.437-57.854,38.282-71.41,50.935    c-5.286-29.416-17.488-96.652-23.61-124.971C167.7,210.29,190.266,222.763,209.715,242.138z M136.774,253.243    c0.461,2.436,0.925,4.904,1.393,7.396c-6.06,7.763-22.108,29.348-32.49,52.755c-1.526-10.554-9.083-64.31-9.876-70.389    C115.196,244.729,130.344,250.453,136.774,253.243z M84.506,273.448c-14.638,8.318-24.511,21.158-30.463,31.118l-17.028-35.678    C56.208,267.033,75.735,271.189,84.506,273.448z M61.406,331.437l75.667,20.03v16.393H61.406V331.437z"/>
		<path style="fill:#333333;" d="M446.978,391.358c-12.615,0-19.239,3.014-25.083,5.673c-5.102,2.322-9.508,4.327-18.87,4.327    c-9.362,0-13.769-2.005-18.871-4.327c-5.844-2.659-12.468-5.673-25.083-5.673c-12.613,0-19.237,3.014-25.081,5.674    c-5.101,2.321-9.507,4.326-18.867,4.326c-9.361,0-13.767-2.005-18.868-4.327c-5.844-2.659-12.467-5.673-25.081-5.673    c-12.613,0-19.236,3.014-25.08,5.674c-5.101,2.321-9.507,4.326-18.867,4.326s-13.766-2.005-18.867-4.326    c-5.843-2.66-12.467-5.674-25.08-5.674c-12.612,0-19.235,3.014-25.078,5.674c-5.1,2.321-9.505,4.326-18.863,4.326    c-9.36,0-13.766-2.005-18.867-4.326c-5.843-2.66-12.467-5.674-25.08-5.674c-12.613,0-19.236,3.014-25.08,5.674    c-5.101,2.321-9.507,4.326-18.867,4.326s-13.766-2.005-18.867-4.326c-5.843-2.66-12.467-5.674-25.08-5.674    c-4.142,0-7.5,3.358-7.5,7.5s3.358,7.5,7.5,7.5c9.36,0,13.766,2.005,18.867,4.326c5.843,2.66,12.467,5.674,25.08,5.674    c12.613,0,19.236-3.014,25.08-5.674c5.101-2.321,9.507-4.326,18.867-4.326s13.766,2.005,18.867,4.326    c5.843,2.66,12.467,5.674,25.08,5.674c12.612,0,19.234-3.014,25.077-5.674c5.1-2.321,9.505-4.326,18.864-4.326    c9.36,0,13.766,2.005,18.867,4.326c5.843,2.66,12.467,5.674,25.08,5.674c12.613,0,19.237-3.014,25.08-5.674    c5.101-2.321,9.506-4.326,18.867-4.326c9.361,0,13.767,2.005,18.868,4.327c5.844,2.659,12.467,5.673,25.081,5.673    c12.613,0,19.236-3.014,25.08-5.673c5.102-2.322,9.507-4.327,18.868-4.327c9.362,0,13.769,2.005,18.87,4.327    c5.845,2.659,12.469,5.673,25.083,5.673c12.614,0,19.238-3.014,25.083-5.673c5.102-2.322,9.508-4.327,18.871-4.327    c4.142,0,7.5-3.358,7.5-7.5S451.12,391.358,446.978,391.358z"/>
		<path style="fill:#333333;" d="M345.611,153.615c31.842,0,57.748-25.905,57.748-57.748S377.453,38.12,345.611,38.12    c-31.842,0-57.747,25.905-57.747,57.748S313.769,153.615,345.611,153.615z M345.611,53.12c23.571,0,42.748,19.176,42.748,42.748    s-19.176,42.748-42.748,42.748c-23.571,0-42.747-19.176-42.747-42.748S322.04,53.12,345.611,53.12z"/>
	</g>
</g>















</svg>
