<?xml version="1.0" encoding="iso-8859-1"?>
<!-- Generator: Adobe Illustrator 19.0.0, SVG Export Plug-In . SVG Version: 6.00 Build 0)  -->
<svg xmlns="http://www.w3.org/2000/svg" xmlns:xlink="http://www.w3.org/1999/xlink" version="1.1" id="Layer_1" x="0px" y="0px" viewBox="0 0 454.478 454.478" style="enable-background:new 0 0 454.478 454.478;" xml:space="preserve" width="512" height="512">
<g>
	<rect x="7.5" y="379.607" style="fill:#0FBC30;" width="439.478" height="25.499"/>
	<path style="fill:#FFD039;" d="M341.122,49.368c27.75,0,50.24,22.5,50.24,50.25s-22.49,50.25-50.24,50.25s-50.25-22.5-50.25-50.25   S313.372,49.368,341.122,49.368z"/>
	<path style="fill:#CCCCCC;" d="M119.212,376.608h-62.67l-1.15-14.45l-0.14-1.7c-0.55-6.84,3.07-13.05,8.73-16.12   c0.3,0.17,0.61,0.33,0.93,0.47c13.23,5.7,28.43,4.49,40.59-3.24c0.3-0.19,0.58-0.39,0.84-0.61c0.77,0.27,1.51,0.59,2.22,0.97   c4.94,2.58,8.48,7.58,8.96,13.55L119.212,376.608z"/>
	<path style="fill:#CCCCCC;" d="M63.982,344.338c-1.12-0.66-2.06-1.55-2.77-2.59c-0.89-1.33-1.42-2.91-1.46-4.58l-1.97-78.05   c-0.11-4.36,3.21-8.05,7.57-8.4l24.78-1.98c4.35-0.35,8.22,2.77,8.8,7.1l10.45,77.37c0.4,2.96-0.77,5.88-3.04,7.75   c-0.26,0.22-0.54,0.42-0.84,0.61c-12.16,7.73-27.36,8.94-40.59,3.24C64.592,344.668,64.282,344.508,63.982,344.338z"/>
	<path style="fill:#B3B3B3;" d="M105.652,357.328c-0.32,0.26-0.66,0.51-1.02,0.74c-14.76,9.38-33.16,10.89-49.24,4.09l-0.14-1.7   c-0.55-6.84,3.07-13.05,8.73-16.12c0.3,0.17,0.61,0.33,0.93,0.47c13.23,5.7,28.43,4.49,40.59-3.24c0.3-0.19,0.58-0.39,0.84-0.61   c0.77,0.27,1.51,0.59,2.22,0.97l0.8,5.93C109.852,351.478,108.422,355.038,105.652,357.328z"/>
	<path style="fill:#CCCCCC;" d="M199.072,319.748c-0.28,0.2-0.58,0.38-0.89,0.54c-12.73,6.74-27.97,6.74-40.71,0   c-0.31-0.16-0.61-0.35-0.89-0.55c-2.28-1.59-3.66-4.2-3.66-7.01c0-0.15,0-0.3,0.01-0.46l4.26-77.96c0.23-4.36,3.84-7.78,8.21-7.78   h24.86c4.37,0,7.97,3.42,8.21,7.78l4.25,77.96C202.892,315.248,201.482,318.068,199.072,319.748z"/>
	<path style="fill:#CCCCCC;" d="M209.062,335.118v41.49h-62.46v-41.49c0-6.86,4.09-12.76,9.98-15.38c0.28,0.2,0.58,0.39,0.89,0.55   c12.74,6.74,27.98,6.74,40.71,0c0.31-0.16,0.61-0.34,0.89-0.54C204.962,322.358,209.062,328.258,209.062,335.118z"/>
	<path style="fill:#B3B3B3;" d="M209.062,335.118v4.21c-0.25,0.16-0.52,0.31-0.79,0.45c-19.04,10.09-41.84,10.09-60.89,0   c-0.27-0.14-0.53-0.29-0.78-0.45v-4.21c0-6.86,4.09-12.76,9.98-15.38c0.28,0.2,0.58,0.39,0.89,0.55c12.74,6.74,27.98,6.74,40.71,0   c0.31-0.16,0.61-0.34,0.89-0.54C204.962,322.358,209.062,328.258,209.062,335.118z"/>
	<path style="fill:#B3B3B3;" d="M291.072,347.308c0.33-0.11,0.66-0.24,0.97-0.39c5.36,3.57,8.42,10.08,7.26,16.83l-2.19,12.86   h-63.02v-2.07l3.64-21.29c1.15-6.76,6.17-11.87,12.41-13.48h0.01c0.24,0.24,0.51,0.47,0.79,0.69   C262.362,349.238,277.392,351.808,291.072,347.308z"/>
	<path style="fill:#CCCCCC;" d="M292.042,346.918c-0.31,0.15-0.64,0.28-0.97,0.39c-13.68,4.5-28.71,1.93-40.13-6.85   c-0.28-0.22-0.55-0.45-0.79-0.69h-0.01c-1.64-1.62-2.54-3.82-2.54-6.09c0-0.62,0.07-1.26,0.21-1.89l17.31-76.14   c0.97-4.26,5.1-7.01,9.4-6.28l24.51,4.18c4.3,0.74,7.29,4.71,6.79,9.05l-8.92,77.56   C296.562,343.128,294.702,345.678,292.042,346.918z"/>
	<path style="fill:#CCCCCC;" d="M399.882,376.608h-62.71l-2.79-31.12c-0.14-1.6-0.06-3.16,0.23-4.66c0.93-4.91,4.03-9.14,8.34-11.54   h0.01c0.29,0.17,0.61,0.33,0.93,0.46c13.28,5.58,28.46,4.22,40.55-3.62c0.3-0.19,0.58-0.4,0.84-0.63c2.77,0.94,5.23,2.59,7.14,4.75   c2.32,2.6,3.85,5.94,4.18,9.67L399.882,376.608z"/>
	<path style="fill:#CCCCCC;" d="M385.282,325.498c-0.26,0.23-0.54,0.44-0.84,0.63c-12.09,7.84-27.27,9.2-40.55,3.62   c-0.32-0.13-0.64-0.29-0.93-0.46c-1.13-0.64-2.08-1.52-2.8-2.56c-0.91-1.32-1.45-2.9-1.51-4.56l-2.71-78.03   c-0.15-4.37,3.13-8.09,7.49-8.48l24.75-2.22c4.36-0.38,8.25,2.7,8.88,7.02l11.19,77.27   C388.672,320.678,387.532,323.618,385.282,325.498z"/>
	<path style="fill:#B3B3B3;" d="M389.462,343.118c-0.31,0.27-0.64,0.52-0.99,0.74c-14.28,9.26-32.2,10.86-47.87,4.28   c-0.38-0.16-0.76-0.35-1.1-0.55c-1.33-0.75-2.46-1.79-3.31-3.02c-0.77-1.12-1.31-2.39-1.58-3.74c0.93-4.91,4.03-9.14,8.34-11.54   h0.01c0.29,0.17,0.61,0.33,0.93,0.46c13.28,5.58,28.46,4.22,40.55-3.62c0.3-0.19,0.58-0.4,0.84-0.63c2.77,0.94,5.23,2.59,7.14,4.75   l0.54,3.7C393.462,337.428,392.112,340.898,389.462,343.118z"/>
	<g>
		<path style="fill:#333333;" d="M176.631,129.365c4.594,0,8.331,3.737,8.331,8.331c0,4.142,3.358,7.5,7.5,7.5s7.5-3.358,7.5-7.5    c0-4.594,3.737-8.331,8.332-8.331c4.142,0,7.5-3.358,7.5-7.5s-3.358-7.5-7.5-7.5c-6.104,0-11.669,2.357-15.832,6.208    c-4.162-3.851-9.727-6.208-15.831-6.208c-4.142,0-7.5,3.358-7.5,7.5S172.489,129.365,176.631,129.365z"/>
		<path style="fill:#333333;" d="M341.119,157.367c31.842,0,57.748-25.905,57.748-57.748c0-31.842-25.905-57.747-57.748-57.747    s-57.748,25.905-57.748,57.747C283.372,131.462,309.277,157.367,341.119,157.367z M341.119,56.873    c23.571,0,42.748,19.176,42.748,42.747c0,23.571-19.176,42.748-42.748,42.748s-42.748-19.176-42.748-42.748    C298.372,76.049,317.548,56.873,341.119,56.873z"/>
		<path style="fill:#333333;" d="M7.5,384.107h439.478c4.142,0,7.5-3.358,7.5-7.5s-3.358-7.5-7.5-7.5H406.74l-2.669-29.858    c-0.588-6.566-3.8-12.48-8.694-16.547c0.472-1.951,0.591-4,0.294-6.051l-11.187-77.269c-1.197-8.264-8.653-14.152-16.965-13.409    l-24.759,2.216c-8.316,0.745-14.603,7.864-14.314,16.209l2.712,78.028c0.072,2.072,0.554,4.069,1.366,5.906    c-4.091,4.872-6.199,11.262-5.613,17.826l2.058,22.95h-22.972l0.696-4.089c1.116-6.495-0.477-13.034-4.175-18.22    c0.956-1.767,1.596-3.72,1.833-5.78l8.919-77.563c0.954-8.296-4.747-15.894-12.977-17.297l-24.505-4.182    c-8.232-1.408-16.128,3.874-17.978,12.015l-17.307,76.132c-0.46,2.023-0.504,4.078-0.188,6.062    c-5.203,3.669-8.873,9.31-9.977,15.799l-2.928,17.124h-10.847v-33.991c0-6.604-2.671-12.77-7.182-17.253    c0.645-1.902,0.947-3.934,0.834-6.005l-4.254-77.959c-0.456-8.337-7.353-14.868-15.702-14.868h-24.858    c-8.349,0-15.246,6.531-15.702,14.868l-4.254,77.959c-0.113,2.07,0.189,4.102,0.834,6.004c-4.511,4.483-7.181,10.649-7.181,17.253    v33.991h-12.961l-1.138-14.225c-0.525-6.585-3.679-12.519-8.533-16.627c0.491-1.947,0.63-3.996,0.353-6.051l-10.45-77.372    c-1.117-8.276-8.519-14.245-16.836-13.57l-24.779,1.979c-8.323,0.666-14.678,7.725-14.467,16.071l1.968,78.05    c0.052,2.072,0.514,4.072,1.308,5.916c-4.139,4.828-6.311,11.188-5.786,17.778l0.643,8.051H7.5c-4.142,0-7.5,3.358-7.5,7.5    S3.358,384.107,7.5,384.107z M344.097,243.129l24.759-2.216c0.022-0.002,0.044-0.003,0.065-0.003c0.356,0,0.665,0.262,0.716,0.621    l11.188,77.27c0.059,0.404-0.125,0.809-0.468,1.031c-10.012,6.5-22.56,7.622-33.565,3.004c-0.377-0.158-0.63-0.524-0.644-0.933    l-1.871-53.841l4.499-0.403l1.743,19.477c0.349,3.898,3.622,6.832,7.461,6.832c0.224,0,0.45-0.01,0.677-0.03    c4.126-0.369,7.171-4.013,6.802-8.139l-2.412-26.947c-0.177-1.981-1.135-3.811-2.661-5.086c-1.526-1.275-3.5-1.894-5.478-1.715    l-11.153,0.999l-0.319-9.172C343.423,243.492,343.713,243.163,344.097,243.129z M341.851,344.82    c-0.23-2.581,0.643-5.079,2.29-6.964c5.401,1.859,11.008,2.792,16.598,2.792c8.63,0,17.21-2.196,24.906-6.502    c1.954,1.561,3.255,3.86,3.485,6.439l2.55,28.522h-47.652L341.851,344.82z M255.129,333.448l11.942-52.533l4.452,0.76    l-3.289,19.276c-0.697,4.083,2.048,7.958,6.131,8.655c0.427,0.073,0.852,0.108,1.271,0.108c3.588,0,6.76-2.583,7.384-6.239    l4.551-26.669c0.334-1.961-0.124-3.975-1.273-5.598s-2.897-2.723-4.858-3.057l-11.038-1.883l2.035-8.951    c0.076-0.335,0.374-0.564,0.707-0.564c0.04,0,0.081,0.003,0.122,0.01l24.505,4.182c0.379,0.065,0.642,0.415,0.598,0.797    l-8.919,77.563c-0.047,0.406-0.328,0.751-0.716,0.879h-0.001c-11.337,3.725-23.756,1.608-33.218-5.668    C255.19,334.264,255.039,333.846,255.129,333.448z M245.124,354.505c0.434-2.55,1.915-4.74,3.989-6.144    c8.476,5.672,18.353,8.627,28.359,8.627c4.247,0,8.516-0.541,12.708-1.619c1.494,2.009,2.166,4.565,1.727,7.119l-1.127,6.619    h-48.152L245.124,354.505z M165.401,234.031h24.858c0.385,0,0.703,0.301,0.724,0.686l4.254,77.958    c0.022,0.409-0.197,0.796-0.558,0.987c0,0,0,0,0,0c-10.55,5.581-23.148,5.581-33.699,0c-0.361-0.191-0.58-0.578-0.558-0.986    l2.936-53.793h4.516v19.555c0,4.142,3.358,7.5,7.5,7.5s7.5-3.358,7.5-7.5v-27.055c0-4.142-3.358-7.5-7.5-7.5h-11.198l0.5-9.165    C164.698,234.333,165.016,234.031,165.401,234.031z M154.098,335.116c0-2.594,1.09-4.997,2.896-6.725    c6.632,2.968,13.733,4.458,20.837,4.458c7.103,0,14.205-1.49,20.836-4.458c1.807,1.729,2.898,4.131,2.898,6.725v33.991h-47.466    V335.116z M65.948,258.193l24.779-1.979c0.02-0.001,0.039-0.002,0.059-0.002c0.359,0,0.668,0.266,0.717,0.628l10.45,77.372    c0.055,0.405-0.133,0.809-0.478,1.027c0,0,0,0-0.001,0.001c-10.071,6.402-22.629,7.406-33.591,2.684    c-0.375-0.162-0.625-0.53-0.635-0.939l-1.358-53.856l4.502-0.36l1.558,19.493c0.313,3.926,3.597,6.903,7.468,6.903    c0.2,0,0.402-0.008,0.605-0.024c4.129-0.33,7.209-3.944,6.879-8.073l-2.155-26.969c-0.158-1.983-1.098-3.822-2.612-5.112    c-1.514-1.29-3.479-1.925-5.462-1.767l-11.162,0.892l-0.231-9.176C65.271,258.549,65.564,258.223,65.948,258.193z M62.728,359.863    c-0.206-2.593,0.691-5.081,2.357-6.948c5.541,1.967,11.308,2.954,17.061,2.954c8.465,0,16.888-2.112,24.478-6.265    c1.938,1.578,3.216,3.886,3.422,6.473l1.042,13.03H63.466L62.728,359.863z"/>
		<path style="fill:#333333;" d="M446.978,397.605H7.5c-4.142,0-7.5,3.358-7.5,7.5s3.358,7.5,7.5,7.5h439.478    c4.142,0,7.5-3.358,7.5-7.5S451.12,397.605,446.978,397.605z"/>
	</g>
</g>















</svg>
