<?xml version="1.0" encoding="iso-8859-1"?>
<!-- Generator: Adobe Illustrator 19.0.0, SVG Export Plug-In . SVG Version: 6.00 Build 0)  -->
<svg xmlns="http://www.w3.org/2000/svg" xmlns:xlink="http://www.w3.org/1999/xlink" version="1.1" id="Layer_1" x="0px" y="0px" viewBox="0 0 454.48 454.48" style="enable-background:new 0 0 454.48 454.48;" xml:space="preserve" width="512" height="512">
<g>
	<rect x="7.504" y="384.86" style="fill:#CCCCCC;" width="320.188" height="25.499"/>
	<rect x="326.579" y="382.536" style="fill:#3B9DFF;" width="120.404" height="27.823"/>
	<path style="fill:#FFD039;" d="M89.563,44.119c27.75,0,50.24,22.5,50.24,50.25s-22.49,50.25-50.24,50.25s-50.25-22.5-50.25-50.25   S61.813,44.119,89.563,44.119z"/>
	<rect x="278.563" y="151.119" style="fill:#B3B3B3;" width="32" height="31"/>
	<polygon style="fill:#CCCCCC;" points="310.563,182.119 310.563,259.119 209.553,259.119 209.553,182.119 278.563,182.119  "/>
	<polygon style="fill:#CCCCCC;" points="209.553,182.119 209.553,259.119 177.553,259.119 177.553,151.119 209.553,151.119  "/>
	<polygon style="fill:#ED2E2E;" points="294.563,107.389 319.803,151.119 310.563,151.119 278.563,151.119 269.313,151.119  "/>
	<polygon style="fill:#ED2E2E;" points="193.553,107.389 218.803,151.119 209.553,151.119 177.553,151.119 168.303,151.119  "/>
	<polygon style="fill:#808080;" points="314.563,302.119 332.563,305.119 313.563,381.859 41.563,381.859 91.563,336.119    125.563,328.119 163.563,259.119 177.553,259.119 209.553,259.119 310.563,259.119 320.563,259.119  "/>
	<g>
		<path style="fill:#333333;" d="M7.5,389.361h320.059c4.142,0,7.5-3.358,7.5-7.5s-3.358-7.5-7.5-7.5h-4.416l16.697-67.437    c0.502-2.029,0.135-4.175-1.013-5.922c-1.148-1.747-2.973-2.935-5.035-3.278l-10.795-1.799l4.991-35.766    c0.3-2.149-0.346-4.323-1.771-5.96c-1.424-1.637-3.488-2.577-5.658-2.577h-2.5v-93h1.749c2.68,0,5.155-1.43,6.495-3.75    s1.34-5.18,0-7.5l-24.244-41.991V92.121c0-4.142-3.358-7.5-7.5-7.5s-7.5,3.358-7.5,7.5v13.258l-24.244,41.992    c-1.34,2.32-1.34,5.18,0,7.5s3.815,3.75,6.495,3.75h1.749v16h-54.003v-16h1.749c2.68,0,5.155-1.43,6.495-3.75s1.34-5.18,0-7.5    l-24.244-41.992V92.121c0-4.142-3.358-7.5-7.5-7.5s-7.5,3.358-7.5,7.5v13.259l-24.244,41.991c-1.34,2.32-1.34,5.18,0,7.5    s3.815,3.75,6.495,3.75h1.749v93h-6.497c-2.734,0-5.251,1.487-6.57,3.882l-36.392,66.081l-30.756,7.236    c-1.248,0.293-2.399,0.902-3.345,1.767l-47.851,43.773H7.5c-4.142,0-7.5,3.358-7.5,7.5S3.358,389.361,7.5,389.361z     M294.559,122.389l12.258,21.232h-24.517L294.559,122.389z M286.059,158.621h17v16h-17V158.621z M303.059,189.621v62h-86.003v-62    H303.059z M193.556,122.389l12.259,21.232h-24.517L193.556,122.389z M185.056,158.621h17v93h-17V158.621z M95.179,342.974    l32.098-7.552c2.065-0.486,3.828-1.824,4.852-3.683l35.862-65.118H311.94l-3.745,26.836l-10.403-1.734    c-4.083-0.683-7.95,2.079-8.631,6.165c-0.681,4.085,2.079,7.95,6.165,8.631l28.005,4.667l-15.642,63.174H60.869L95.179,342.974z"/>
		<path style="fill:#333333;" d="M446.978,402.859H7.5c-4.142,0-7.5,3.358-7.5,7.5s3.358,7.5,7.5,7.5h439.478    c4.142,0,7.5-3.358,7.5-7.5S451.12,402.859,446.978,402.859z"/>
		<path style="fill:#333333;" d="M348.527,375.035c-3.77-1.716-8.217-0.053-9.934,3.717c-1.717,3.77-0.052,8.217,3.717,9.934    c5.841,2.66,12.46,5.674,25.078,5.674s19.243-3.015,25.087-5.674c5.101-2.321,9.505-4.326,18.863-4.326    c9.356,0,13.762,2.004,18.864,4.326c4.105,1.868,8.758,3.985,15.664,5.021c4.099,0.613,7.915-2.208,8.53-6.304    s-2.208-7.915-6.304-8.53c-4.83-0.725-8.003-2.168-11.677-3.84c-5.844-2.659-12.468-5.672-25.076-5.672    c-12.61,0-19.232,3.014-25.076,5.673c-5.103,2.322-9.509,4.327-18.875,4.327C358.026,379.361,353.624,377.357,348.527,375.035z"/>
		<path style="fill:#333333;" d="M89.559,152.116c31.842,0,57.747-25.905,57.747-57.748s-25.905-57.748-57.747-57.748    c-31.842,0-57.748,25.905-57.748,57.748S57.717,152.116,89.559,152.116z M89.559,51.621c23.571,0,42.747,19.176,42.747,42.748    s-19.176,42.748-42.747,42.748c-23.571,0-42.748-19.176-42.748-42.748S65.988,51.621,89.559,51.621z"/>
		<path style="fill:#333333;" d="M232.059,219.996c4.142,0,7.5-3.358,7.5-7.5v-8.75c0-4.142-3.358-7.5-7.5-7.5s-7.5,3.358-7.5,7.5    v8.75C224.559,216.638,227.917,219.996,232.059,219.996z"/>
		<path style="fill:#333333;" d="M260.559,219.996c4.142,0,7.5-3.358,7.5-7.5v-8.75c0-4.142-3.358-7.5-7.5-7.5s-7.5,3.358-7.5,7.5    v8.75C253.059,216.638,256.417,219.996,260.559,219.996z"/>
		<path style="fill:#333333;" d="M289.059,219.996c4.142,0,7.5-3.358,7.5-7.5v-8.75c0-4.142-3.358-7.5-7.5-7.5s-7.5,3.358-7.5,7.5    v8.75C281.559,216.638,284.917,219.996,289.059,219.996z"/>
		<path style="fill:#333333;" d="M239.796,296.962c-3.951-1.233-8.159,0.969-9.396,4.922l-3.564,11.407l-42.227,5.391    c-3.023,0.386-5.512,2.563-6.297,5.507l-8,30c-1.067,4.002,1.312,8.112,5.314,9.179c0.648,0.173,1.297,0.255,1.938,0.255    c3.314,0,6.347-2.215,7.242-5.569l6.702-25.131l42.001-5.362c2.909-0.371,5.334-2.403,6.209-5.203l5-16    C245.953,302.405,243.75,298.198,239.796,296.962z"/>
		<path style="fill:#333333;" d="M340.563,127.621c4.594,0,8.332,3.737,8.332,8.332c0,4.142,3.358,7.5,7.5,7.5s7.5-3.358,7.5-7.5    c0-4.594,3.737-8.332,8.331-8.332c4.142,0,7.5-3.358,7.5-7.5s-3.358-7.5-7.5-7.5c-6.104,0-11.669,2.357-15.831,6.208    c-4.163-3.851-9.727-6.208-15.832-6.208c-4.142,0-7.5,3.358-7.5,7.5S336.421,127.621,340.563,127.621z"/>
		<path style="fill:#333333;" d="M88.395,236.828c-4.163-3.851-9.727-6.208-15.832-6.208c-4.142,0-7.5,3.358-7.5,7.5    s3.358,7.5,7.5,7.5c4.594,0,8.332,3.737,8.332,8.332c0,4.142,3.358,7.5,7.5,7.5s7.5-3.358,7.5-7.5    c0-4.594,3.737-8.332,8.331-8.332c4.142,0,7.5-3.358,7.5-7.5s-3.358-7.5-7.5-7.5C98.122,230.621,92.557,232.978,88.395,236.828z"/>
	</g>
</g>















</svg>
