<?xml version="1.0" encoding="iso-8859-1"?>
<!-- Generator: Adobe Illustrator 19.0.0, SVG Export Plug-In . SVG Version: 6.00 Build 0)  -->
<svg xmlns="http://www.w3.org/2000/svg" xmlns:xlink="http://www.w3.org/1999/xlink" version="1.1" id="Layer_1" x="0px" y="0px" viewBox="0 0 457.859 457.859" style="enable-background:new 0 0 457.859 457.859;" xml:space="preserve" width="512" height="512">
<g>
	<rect x="9.19" y="384.89" style="fill:#0FBC30;" width="439.478" height="25.499"/>
	<g>
		<path style="fill:#0FBC30;" d="M426.183,284.818c13.35,0,24.18,12.39,24.18,27.67c0,15.27-10.83,27.66-24.18,27.66    c-6.39,0-12.19-2.83-16.51-7.46c-4.32,4.63-10.12,7.46-16.51,7.46c-6.26,0-11.98-2.73-16.27-7.2c-4.3,4.47-10.01,7.2-16.28,7.2    c-13.35,0-24.17-12.39-24.17-27.66c0-15.28,10.82-27.67,24.17-27.67c6.27,0,11.98,2.73,16.28,7.2c4.29-4.47,10.01-7.2,16.27-7.2    c6.39,0,12.19,2.83,16.51,7.46C413.993,287.648,419.793,284.818,426.183,284.818z"/>
		<path style="fill:#3B9DFF;" d="M423.243,137.778c2.78,2.78,4.5,6.62,4.5,10.87c0,8.49-6.88,15.37-15.37,15.37h-88.74    c-4.24,0-8.09-1.72-10.87-4.5c-2.79-2.78-4.51-6.62-4.51-10.87c0-8.49,6.89-15.38,15.38-15.38h-140.37h-29.36    c-4.25,0-8.09-1.72-10.87-4.5c-2.79-2.78-4.51-6.63-4.51-10.87c0-8.49,6.89-15.38,15.38-15.38h43.87h156.6    c4.25,0,8.1,1.72,10.88,4.51c2.78,2.78,4.5,6.63,4.5,10.87c0,8.49-6.88,15.37-15.38,15.37h58    C416.613,133.268,420.463,134.988,423.243,137.778z"/>
		<polygon style="fill:#FFD039;" points="234.333,352.878 276.053,280.618 334.523,381.888 290.773,381.888 271.183,347.948     251.583,381.888 251.083,381.888 217.583,381.888   "/>
		<polygon style="fill:#EAB932;" points="271.183,347.948 290.773,381.888 251.583,381.888   "/>
		<polygon style="fill:#EAB932;" points="197.673,289.368 234.333,352.878 217.583,381.888 144.253,381.888 197.663,289.378   "/>
		<path style="fill:#3B9DFF;" d="M192.503,180.518c8.5,0,15.4,6.89,15.4,15.39c0,4.25-1.73,8.11-4.51,10.89    c-2.79,2.79-6.64,4.51-10.89,4.51h-105.7c-8.51,0-15.4-6.89-15.4-15.4c0-4.25,1.72-8.1,4.51-10.88c2.78-2.79,6.64-4.51,10.89-4.51    H192.503z"/>
		<path style="fill:#FFD039;" d="M198.003,97.718c0,1.62-0.08,3.22-0.23,4.8h-43.87c-8.49,0-15.38,6.89-15.38,15.38    c0,4.24,1.72,8.09,4.51,10.87c2.78,2.78,6.62,4.5,10.87,4.5h29.36c-9.09,9.09-21.64,14.7-35.51,14.7    c-27.75,0-50.24-22.5-50.24-50.25s22.49-50.25,50.24-50.25S198.003,69.968,198.003,97.718z"/>
		<polygon style="fill:#ED2E2E;" points="71.003,347.948 90.603,381.888 51.413,381.888   "/>
	</g>
	<g>
		<path style="fill:#333333;" d="M68.166,272.317h76c4.143,0,7.5-3.358,7.5-7.5s-3.357-7.5-7.5-7.5h-76c-4.143,0-7.5,3.358-7.5,7.5    S64.023,272.317,68.166,272.317z"/>
		<path style="fill:#333333;" d="M20.166,297.65H83.5c4.143,0,7.5-3.358,7.5-7.5s-3.357-7.5-7.5-7.5H20.166    c-2.849,0-5.166-2.318-5.166-5.167s2.317-5.167,5.166-5.167h26.667c4.143,0,7.5-3.358,7.5-7.5s-3.357-7.5-7.5-7.5H20.166    C9.047,257.317,0,266.364,0,277.484S9.047,297.65,20.166,297.65z"/>
		<path style="fill:#333333;" d="M114.166,306.65H84.34c-11.487,0-20.833,9.346-20.833,20.833c0,4.142,3.357,7.5,7.5,7.5    s7.5-3.358,7.5-7.5c0-3.217,2.616-5.833,5.833-5.833h29.826c10.752,0,19.5-8.748,19.5-19.5s-8.748-19.5-19.5-19.5h-5.332    c-4.143,0-7.5,3.358-7.5,7.5s3.357,7.5,7.5,7.5h5.332c2.481,0,4.5,2.019,4.5,4.5S116.647,306.65,114.166,306.65z"/>
		<path style="fill:#333333;" d="M86.799,218.807h105.705c12.624,0,22.895-10.271,22.895-22.895s-10.271-22.894-22.895-22.894    H86.799c-12.623,0-22.894,10.271-22.894,22.895S74.176,218.807,86.799,218.807z M86.799,188.019h105.705    c4.354,0,7.895,3.542,7.895,7.895s-3.541,7.894-7.895,7.894H86.799c-4.353,0-7.894-3.542-7.894-7.895    S82.446,188.019,86.799,188.019z"/>
		<path style="fill:#333333;" d="M147.753,155.47c14.349,0,27.891-5.201,38.483-14.699h115.916    c-0.903,2.456-1.396,5.109-1.396,7.874c0,12.613,10.262,22.875,22.874,22.875h88.74c12.612,0,22.874-10.262,22.874-22.875    s-10.262-22.874-22.874-22.874h-36.514c0.903-2.457,1.396-5.108,1.396-7.875c0-12.613-10.262-22.874-22.874-22.874H205.434    c-1.415-30.595-26.743-55.052-57.682-55.052c-31.838,0-57.74,25.907-57.74,57.75S115.915,155.47,147.753,155.47z M362.252,117.897    c0,4.342-3.532,7.875-7.874,7.875c-4.143,0-7.5,3.358-7.5,7.5s3.357,7.5,7.5,7.5h57.991c4.342,0,7.874,3.532,7.874,7.874    s-3.532,7.875-7.874,7.875h-88.74c-4.342,0-7.874-3.533-7.874-7.875s3.532-7.874,7.874-7.874c4.143,0,7.5-3.358,7.5-7.5    s-3.357-7.5-7.5-7.5H153.9c-4.342,0-7.874-3.533-7.874-7.875s3.532-7.874,7.874-7.874h200.478    C358.72,110.023,362.252,113.555,362.252,117.897z M147.753,54.97c22.665,0,41.258,17.733,42.656,40.052H153.9    c-12.612,0-22.874,10.261-22.874,22.874c0,11.253,8.171,20.628,18.889,22.52c-0.718,0.035-1.438,0.054-2.162,0.054    c-23.567,0-42.74-19.178-42.74-42.75S124.186,54.97,147.753,54.97z"/>
		<path style="fill:#333333;" d="M450.359,374.39h-16.68v-27.745c13.859-3.75,24.18-17.64,24.18-34.162    c0-19.391-14.212-35.167-31.68-35.167c-5.904,0-11.582,1.79-16.507,5.133c-4.925-3.343-10.603-5.133-16.507-5.133    c-5.803,0-11.4,1.734-16.274,4.975c-4.874-3.24-10.472-4.975-16.274-4.975c-17.468,0-31.68,15.776-31.68,35.167    c0,16.522,10.321,30.412,24.18,34.162v27.745h-14.261l-54.141-93.774l10.573-18.314c2.071-3.587,0.842-8.174-2.745-10.245    c-3.589-2.072-8.175-0.841-10.245,2.745l-6.243,10.814l-6.244-10.814c-2.071-3.588-6.66-4.815-10.245-2.745    c-3.587,2.071-4.816,6.658-2.745,10.245l10.574,18.314l-33.062,57.265l-28.005-48.511l9.47-16.401    c2.071-3.587,0.842-8.174-2.745-10.245c-3.586-2.073-8.173-0.843-10.245,2.745l-5.143,8.906l-5.142-8.906    c-2.07-3.588-6.66-4.817-10.245-2.745c-3.587,2.071-4.816,6.658-2.745,10.245l9.472,16.407l-49.086,85.015H94.933L77.502,344.2    c-1.34-2.32-3.815-3.75-6.495-3.75s-5.155,1.43-6.495,3.75l-17.431,30.19h-36.2c-4.143,0-7.5,3.358-7.5,7.5s3.357,7.5,7.5,7.5    h439.479c4.143,0,7.5-3.358,7.5-7.5S454.502,374.39,450.359,374.39z M400.666,346.641c3.178-0.854,6.216-2.229,9.007-4.124    c2.791,1.895,5.828,3.271,9.007,4.124v27.749h-18.014V346.641z M343.938,312.484c0-11.12,7.482-20.167,16.68-20.167    c3.974,0,7.832,1.74,10.863,4.898c1.414,1.474,3.368,2.307,5.411,2.307s3.997-0.833,5.411-2.307    c3.031-3.159,6.89-4.898,10.863-4.898c4.05,0,7.966,1.804,11.027,5.08c1.418,1.518,3.402,2.379,5.479,2.379    s4.062-0.861,5.479-2.379c3.062-3.276,6.978-5.08,11.027-5.08c9.197,0,16.68,9.047,16.68,20.167s-7.482,20.167-16.68,20.167    c-4.05,0-7.966-1.804-11.027-5.08c-1.418-1.518-3.402-2.379-5.479-2.379s-4.062,0.861-5.479,2.379    c-3.062,3.276-6.978,5.08-11.027,5.08c-3.974,0-7.831-1.74-10.863-4.899c-1.414-1.474-3.368-2.307-5.411-2.307    s-3.997,0.833-5.411,2.307c-3.032,3.159-6.89,4.899-10.863,4.899C351.42,332.65,343.938,323.603,343.938,312.484z     M368.117,346.641c3.089-0.83,6.048-2.153,8.774-3.965c2.727,1.813,5.685,3.135,8.774,3.965v27.75h-17.549V346.641z     M64.401,374.39l6.605-11.44l6.605,11.44H64.401z M197.668,304.37l28.006,48.51l-12.419,21.51H157.24L197.668,304.37z     M264.575,374.39l6.605-11.44l6.605,11.44H264.575z M295.106,374.39l-17.431-30.19c-1.34-2.32-3.815-3.75-6.495-3.75    s-5.155,1.43-6.495,3.75l-17.431,30.19h-16.68l45.48-78.774l45.48,78.774H295.106z"/>
		<path style="fill:#333333;" d="M450.359,402.889H10.881c-4.143,0-7.5,3.358-7.5,7.5s3.357,7.5,7.5,7.5h439.479    c4.143,0,7.5-3.358,7.5-7.5S454.502,402.889,450.359,402.889z"/>
	</g>
</g>















</svg>
