<?xml version="1.0" encoding="iso-8859-1"?>
<!-- Generator: Adobe Illustrator 19.0.0, SVG Export Plug-In . SVG Version: 6.00 Build 0)  -->
<svg xmlns="http://www.w3.org/2000/svg" xmlns:xlink="http://www.w3.org/1999/xlink" version="1.1" id="Layer_1" x="0px" y="0px" viewBox="0 0 454.479 454.479" style="enable-background:new 0 0 454.479 454.479;" xml:space="preserve" width="512" height="512">
<g>
	<rect x="7.503" y="398.201" style="fill:#3B9DFF;" width="235.406" height="29.697"/>
	<rect x="211.573" y="402.4" style="fill:#CCCCCC;" width="235.406" height="25.499"/>
	<polygon style="fill:#FFD039;" points="266.233,196.618 266.233,265.319 246.903,265.319 246.903,397.989 211.573,397.989    211.573,196.618  "/>
	<rect x="211.573" y="196.618" style="fill:#EAB932;" width="54.66" height="22.89"/>
	<circle style="fill:#CCCCCC;" cx="238.903" cy="164.469" r="14.85"/>
	<path style="fill:#3B9DFF;" d="M422.563,154.119c2.06,2.05,3.33,4.89,3.33,8.03c0,6.27-5.09,11.36-11.36,11.36h-39.16   c-3.14,0-5.98-1.27-8.03-3.33c-2.06-2.05-3.33-4.89-3.33-8.03c0-6.27,5.08-11.36,11.36-11.36h-42.85c-3.14,0-5.98-1.27-8.03-3.33   c-2.06-2.05-3.33-4.89-3.33-8.03c0-6.27,5.09-11.36,11.36-11.36h65.57c3.13,0,5.97,1.27,8.03,3.33c2.06,2.05,3.33,4.89,3.33,8.03   c0,6.27-5.09,11.36-11.36,11.36h16.44C417.663,150.789,420.503,152.059,422.563,154.119z"/>
	<path style="fill:#3B9DFF;" d="M167.213,95.449c2.79,2.78,4.51,6.62,4.51,10.87c0,8.49-6.89,15.38-15.38,15.38h-88.74   c-4.24,0-8.09-1.72-10.87-4.51c-2.78-2.78-4.5-6.62-4.5-10.87c0-8.49,6.88-15.37,15.37-15.37h-22.25c-4.25,0-8.09-1.72-10.87-4.5   c-2.79-2.78-4.51-6.62-4.51-10.87c0-8.5,6.89-15.38,15.38-15.38h53c4.25,0,8.09,1.72,10.87,4.5c2.79,2.79,4.51,6.63,4.51,10.88   c0,8.49-6.89,15.37-15.38,15.37h57.99C160.583,90.949,164.433,92.669,167.213,95.449z"/>
	<polygon style="fill:#CCCCCC;" points="238.903,27.989 255.043,81.499 222.763,81.499  "/>
	<polygon style="fill:#CCCCCC;" points="255.043,108.339 268.793,132.319 209.013,132.319 222.763,108.339  "/>
	<rect x="222.763" y="81.499" style="fill:#FFD039;" width="32.28" height="26.84"/>
	<path style="fill:#FFD039;" d="M273.463,132.319v64.3h-7.23h-54.66h-7.23v-64.3h4.67h59.78H273.463z M253.753,164.469   c0-8.2-6.65-14.85-14.85-14.85s-14.85,6.65-14.85,14.85c0,8.2,6.65,14.85,14.85,14.85S253.753,172.669,253.753,164.469z"/>
	<path style="fill:#FFD039;" d="M109.533,371.319c-28.2-28.2-73.83-28.2-102.03,0v-42.83h102.03V371.319z"/>
	<path style="fill:#FFD039;" d="M211.573,328.489v42.83c-28.2-28.2-73.84-28.2-102.04,0v-42.83H211.573z"/>
	<polygon style="fill:#FFD039;" points="432.903,265.319 432.903,397.989 374.903,397.989 374.903,296.989 374.903,265.319    394.233,265.319 413.563,265.319  "/>
	<polygon style="fill:#EAB932;" points="374.903,296.989 374.903,397.989 304.903,397.989 304.903,296.989 328.903,296.989    350.903,296.989  "/>
	<polygon style="fill:#FFD039;" points="304.903,296.989 304.903,397.989 246.903,397.989 246.903,265.319 266.233,265.319    285.563,265.319 304.903,265.319  "/>
	<g>
		<path style="fill:#333333;" d="M7.5,410.492c11.914,0,18.148-3.065,23.649-5.77c4.808-2.364,8.605-4.23,17.031-4.23    c8.433,0,12.232,1.868,17.042,4.232c5.5,2.704,11.735,5.768,23.647,5.768c11.916,0,18.15-3.066,23.65-5.771    c4.805-2.363,8.601-4.229,17.02-4.229c8.426,0,12.223,1.867,17.031,4.23c5.5,2.705,11.735,5.77,23.649,5.77    c11.926,0,18.155-3.066,23.652-5.771c3.717-1.829,5.247-6.325,3.418-10.041c-1.83-3.716-6.324-5.247-10.041-3.418    c-4.802,2.363-8.594,4.229-17.029,4.229c-8.426,0-12.223-1.867-17.031-4.23c-5.5-2.705-11.735-5.77-23.649-5.77    c-11.908,0-18.141,3.065-23.639,5.769c-4.807,2.364-8.604,4.231-17.031,4.231c-8.425,0-12.223-1.867-17.031-4.23    c-5.502-2.705-11.739-5.77-23.659-5.77c-11.914,0-18.148,3.065-23.649,5.77c-4.808,2.364-8.605,4.23-17.031,4.23    c-4.142,0-7.5,3.358-7.5,7.5S3.358,410.492,7.5,410.492z"/>
		<path style="fill:#333333;" d="M446.979,418.991H7.501c-4.142,0-7.5,3.358-7.5,7.5s3.358,7.5,7.5,7.5h439.478    c4.142,0,7.5-3.358,7.5-7.5S451.121,418.991,446.979,418.991z"/>
		<path style="fill:#333333;" d="M58.518,342.672c-21.264,0-41.267,8.292-56.321,23.347c-2.929,2.929-2.929,7.678,0,10.606    c2.929,2.929,7.678,2.929,10.606,0c12.222-12.222,28.457-18.953,45.715-18.953s33.493,6.731,45.715,18.953    c1.406,1.407,3.314,2.197,5.303,2.197s3.897-0.79,5.303-2.197c12.222-12.222,28.457-18.953,45.715-18.953    c16.244,0,31.58,5.967,43.518,16.861v23.459c0,4.142,3.358,7.5,7.5,7.5h235.406c4.142,0,7.5-3.358,7.5-7.5s-3.358-7.5-7.5-7.5    H440.4v-157.17c0-4.142-3.358-7.5-7.5-7.5s-7.5,3.358-7.5,7.5v24.5h-4.333v-11.5c0-4.142-3.358-7.5-7.5-7.5s-7.5,3.358-7.5,7.5    v11.5h-4.333v-11.5c0-4.142-3.358-7.5-7.5-7.5s-7.5,3.358-7.5,7.5v11.5H382.4v-24.5c0-4.142-3.358-7.5-7.5-7.5s-7.5,3.358-7.5,7.5    v56.17h-9v-9.833c0-4.142-3.358-7.5-7.5-7.5s-7.5,3.358-7.5,7.5v9.833h-7v-9.833c0-4.142-3.358-7.5-7.5-7.5s-7.5,3.358-7.5,7.5    v9.833h-9v-56.17c0-4.142-3.358-7.5-7.5-7.5s-7.5,3.358-7.5,7.5v24.5h-4.333v-11.5c0-4.142-3.358-7.5-7.5-7.5s-7.5,3.358-7.5,7.5    v11.5h-4.333v-53.721c4.015-0.145,7.228-3.436,7.228-7.486v-64.293c0-4.142-3.358-7.5-7.5-7.5h-0.322L262.54,106.34V81.494    c0-0.733-0.107-1.463-0.319-2.166l-16.137-53.505c-0.956-3.167-3.873-5.334-7.181-5.334s-6.226,2.167-7.181,5.334l-16.137,53.505    c-0.212,0.702-0.319,1.432-0.319,2.166v24.846l-10.599,18.482h-0.322c-4.142,0-7.5,3.358-7.5,7.5v64.293    c0,4.05,3.213,7.342,7.228,7.486v116.889h-87.036v-9.668c0-4.142-3.358-7.5-7.5-7.5s-7.5,3.358-7.5,7.5v9.668H7.501    c-4.142,0-7.5,3.358-7.5,7.5s3.358,7.5,7.5,7.5h94.536v19.624C89.202,347.201,74.207,342.672,58.518,342.672z M265.962,189.115    h-54.117v-49.293h54.117V189.115z M425.4,390.492h-43v-117.67h43V390.492z M367.4,304.492v86h-55v-86H367.4z M297.4,390.492h-43    v-117.67h43V390.492z M254.4,257.822v-24.5c0-4.142-3.358-7.5-7.5-7.5s-7.5,3.358-7.5,7.5v157.17h-20.327v-19.167    c0-0.001,0-0.003,0-0.005V204.115h39.661v53.707H254.4z M230.266,88.994h17.274v11.844h-17.274V88.994z M238.903,53.963    l6.042,20.031h-12.083L238.903,53.963z M227.111,115.838h23.585l5.152,8.984h-33.889L227.111,115.838z M204.073,335.991v19.622    c-12.835-8.413-27.829-12.94-43.518-12.94c-15.689,0-30.683,4.528-43.518,12.942v-19.623H204.073z"/>
		<path style="fill:#333333;" d="M266.234,280.822c-4.142,0-7.5,3.358-7.5,7.5v24.428c0,4.142,3.358,7.5,7.5,7.5s7.5-3.358,7.5-7.5    v-24.428C273.734,284.18,270.376,280.822,266.234,280.822z"/>
		<path style="fill:#333333;" d="M278.067,288.322v24.428c0,4.142,3.358,7.5,7.5,7.5s7.5-3.358,7.5-7.5v-24.428    c0-4.142-3.358-7.5-7.5-7.5S278.067,284.18,278.067,288.322z"/>
		<path style="fill:#333333;" d="M266.234,337.393c-4.142,0-7.5,3.358-7.5,7.5v24.429c0,4.142,3.358,7.5,7.5,7.5s7.5-3.358,7.5-7.5    v-24.429C273.734,340.751,270.376,337.393,266.234,337.393z"/>
		<path style="fill:#333333;" d="M285.567,337.393c-4.142,0-7.5,3.358-7.5,7.5v24.429c0,4.142,3.358,7.5,7.5,7.5s7.5-3.358,7.5-7.5    v-24.429C293.067,340.751,289.709,337.393,285.567,337.393z"/>
		<path style="fill:#333333;" d="M394.234,280.822c-4.142,0-7.5,3.358-7.5,7.5v24.428c0,4.142,3.358,7.5,7.5,7.5s7.5-3.358,7.5-7.5    v-24.428C401.734,284.18,398.376,280.822,394.234,280.822z"/>
		<path style="fill:#333333;" d="M406.067,288.322v24.428c0,4.142,3.358,7.5,7.5,7.5s7.5-3.358,7.5-7.5v-24.428    c0-4.142-3.358-7.5-7.5-7.5S406.067,284.18,406.067,288.322z"/>
		<path style="fill:#333333;" d="M394.234,337.393c-4.142,0-7.5,3.358-7.5,7.5v24.429c0,4.142,3.358,7.5,7.5,7.5s7.5-3.358,7.5-7.5    v-24.429C401.734,340.751,398.376,337.393,394.234,337.393z"/>
		<path style="fill:#333333;" d="M413.567,337.393c-4.142,0-7.5,3.358-7.5,7.5v24.429c0,4.142,3.358,7.5,7.5,7.5s7.5-3.358,7.5-7.5    v-24.429C421.067,340.751,417.709,337.393,413.567,337.393z"/>
		<path style="fill:#333333;" d="M238.903,186.822c12.326,0,22.354-10.028,22.354-22.354s-10.028-22.354-22.354-22.354    s-22.354,10.028-22.354,22.354S226.577,186.822,238.903,186.822z M238.903,157.115c4.055,0,7.354,3.299,7.354,7.354    s-3.299,7.354-7.354,7.354s-7.354-3.299-7.354-7.354S234.848,157.115,238.903,157.115z"/>
		<path style="fill:#333333;" d="M328.9,378.492c4.142,0,7.5-3.358,7.5-7.5v-46.667c0-4.142-3.358-7.5-7.5-7.5s-7.5,3.358-7.5,7.5    v46.667C321.4,375.134,324.758,378.492,328.9,378.492z"/>
		<path style="fill:#333333;" d="M350.9,378.492c4.142,0,7.5-3.358,7.5-7.5v-46.667c0-4.142-3.358-7.5-7.5-7.5s-7.5,3.358-7.5,7.5    v46.667C343.4,375.134,346.758,378.492,350.9,378.492z"/>
		<path style="fill:#333333;" d="M45.352,98.448h0.776c-0.903,2.456-1.396,5.109-1.396,7.874c0,12.613,10.261,22.875,22.875,22.875    h88.74c12.613,0,22.874-10.261,22.874-22.875c0-12.613-10.261-22.874-22.874-22.874h-36.514c0.903-2.457,1.396-5.108,1.396-7.875    c0-12.613-10.261-22.874-22.874-22.874H45.352c-12.613,0-22.875,10.261-22.875,22.874C22.477,88.187,32.739,98.448,45.352,98.448z     M45.352,67.7h53.003c4.342,0,7.874,3.532,7.874,7.874s-3.532,7.875-7.874,7.875c-4.142,0-7.5,3.358-7.5,7.5s3.358,7.5,7.5,7.5    h57.992c4.342,0,7.874,3.532,7.874,7.874s-3.532,7.875-7.874,7.875h-88.74c-4.342,0-7.875-3.533-7.875-7.875    s3.533-7.874,7.875-7.874c4.142,0,7.5-3.358,7.5-7.5s-3.358-7.5-7.5-7.5H45.352c-4.342,0-7.875-3.533-7.875-7.875    S41.01,67.7,45.352,67.7z"/>
		<path style="fill:#333333;" d="M332.523,158.288h24.386c-0.26,1.246-0.397,2.537-0.397,3.859c0,10.399,8.46,18.86,18.859,18.86    h39.163c10.399,0,18.86-8.46,18.86-18.86c0-9.725-7.399-17.753-16.863-18.754c0.275-1.279,0.419-2.605,0.419-3.965    c0-10.399-8.46-18.859-18.859-18.859h-65.568c-10.399,0-18.86,8.46-18.86,18.859C313.663,149.828,322.123,158.288,332.523,158.288    z M332.523,135.569h65.568c2.128,0,3.859,1.731,3.859,3.859c0,2.128-1.731,3.86-3.859,3.86c-4.142,0-7.5,3.358-7.5,7.5    s3.358,7.5,7.5,7.5h16.443c2.128,0,3.86,1.731,3.86,3.859c0,2.128-1.731,3.86-3.86,3.86h-39.163c-2.128,0-3.859-1.731-3.859-3.86    c0-2.128,1.731-3.859,3.859-3.859c4.142,0,7.5-3.358,7.5-7.5s-3.358-7.5-7.5-7.5h-42.849c-2.128,0-3.86-1.731-3.86-3.86    C328.663,137.301,330.394,135.569,332.523,135.569z"/>
	</g>
</g>















</svg>
