<?xml version="1.0" encoding="iso-8859-1"?>
<!-- Generator: Adobe Illustrator 19.0.0, SVG Export Plug-In . SVG Version: 6.00 Build 0)  -->
<svg xmlns="http://www.w3.org/2000/svg" xmlns:xlink="http://www.w3.org/1999/xlink" version="1.1" id="Layer_1" x="0px" y="0px" viewBox="0 0 454.479 454.479" style="enable-background:new 0 0 454.479 454.479;" xml:space="preserve" width="512" height="512">
<g>
	<path style="fill:#FFD039;" d="M381.162,326.668v69.22h-41.29v-28c0-9.39-7.61-17-17-17c-9.39,0-17,7.61-17,17v28h-29.95   l-28.94-69.22h20.22h34h24h34H381.162z"/>
	<path style="fill:#FFD039;" d="M381.162,257.448v69.22h-21.96v-28c0-9.39-7.61-17-17-17c-3.29,0-6.36,0.93-8.96,2.56   c-4.83,2.99-8.04,8.34-8.04,14.44v28h-24v-28c0-9.39-7.61-17-17-17c-9.39,0-17,7.61-17,17v28h-20.22l-28.93-69.21v-0.01H381.162z"/>
	<path style="fill:#FFD039;" d="M246.982,326.668l28.94,69.22h-32.72v-28c0-9.39-7.61-17-17-17s-17,7.61-17,17v28h-24v-28   c0-9.39-7.61-17-17-17s-17,7.61-17,17v28h-24v-28c0-9.39-7.61-17-17-17s-17,7.61-17,17v28h-21.96v-69.22h21.96h34h40h34H246.982z"/>
	<path style="fill:#FFD039;" d="M218.052,257.458l28.93,69.21h-45.78v-28c0-9.39-7.61-17-17-17s-17,7.61-17,17v28h-40v-28   c0-9.39-7.61-17-17-17s-17,7.61-17,17v28h-21.96v-69.21h21.96h34h24h34H218.052z"/>
	<path style="fill:#FFD039;" d="M218.052,257.448h-32.85v-28c0-9.39-7.61-17-17-17s-17,7.61-17,17v28h-24v-28c0-9.39-7.61-17-17-17   s-17,7.61-17,17v28h-21.96v-69.21h117.88L218.052,257.448z"/>
	<rect x="71.242" y="188.238" style="fill:#EAB932;" width="47" height="209.27"/>
	<rect x="333.242" y="257.448" style="fill:#EAB932;" width="47" height="140.06"/>
	<rect x="7.5" y="397.399" style="fill:#CCCCCC;" width="439.478" height="25.499"/>
	<path style="fill:#666666;" d="M339.872,367.888v28h-34v-28c0-9.39,7.61-17,17-17C332.262,350.888,339.872,358.498,339.872,367.888   z"/>
	<path style="fill:#666666;" d="M243.202,367.888v28h-34v-28c0-9.39,7.61-17,17-17S243.202,358.498,243.202,367.888z"/>
	<path style="fill:#666666;" d="M185.202,367.888v28h-34v-28c0-9.39,7.61-17,17-17S185.202,358.498,185.202,367.888z"/>
	<path style="fill:#666666;" d="M127.202,367.888v28h-34v-28c0-9.39,7.61-17,17-17S127.202,358.498,127.202,367.888z"/>
	<path style="fill:#666666;" d="M359.202,298.668v28h-34v-28c0-9.39,7.61-17,17-17C351.592,281.668,359.202,289.278,359.202,298.668   z"/>
	<path style="fill:#666666;" d="M301.202,298.668v28h-34v-28c0-9.39,7.61-17,17-17C293.592,281.668,301.202,289.278,301.202,298.668   z"/>
	<path style="fill:#666666;" d="M201.202,298.668v28h-34v-28c0-9.39,7.61-17,17-17S201.202,289.278,201.202,298.668z"/>
	<path style="fill:#666666;" d="M127.202,298.668v28h-34v-28c0-9.39,7.61-17,17-17S127.202,289.278,127.202,298.668z"/>
	<path style="fill:#666666;" d="M185.202,229.448v28h-34v-28c0-9.39,7.61-17,17-17S185.202,220.058,185.202,229.448z"/>
	<path style="fill:#666666;" d="M127.202,229.448v28h-34v-28c0-9.39,7.61-17,17-17S127.202,220.058,127.202,229.448z"/>
	<path style="fill:#FFD039;" d="M366.852,30.098c27.76,0,50.25,22.49,50.25,50.25c0,27.75-22.49,50.24-50.25,50.24   c-27.75,0-50.24-22.49-50.24-50.24C316.612,52.588,339.102,30.098,366.852,30.098z"/>
	<g>
		<path style="fill:#333333;" d="M7.5,403.384h439.479c4.143,0,7.5-3.358,7.5-7.5s-3.357-7.5-7.5-7.5h-58.314v-54.217h7.041    c4.143,0,7.5-3.358,7.5-7.5s-3.357-7.5-7.5-7.5h-7.041v-54.217h7.041c4.143,0,7.5-3.358,7.5-7.5s-3.357-7.5-7.5-7.5H223.052    l-27.007-64.608c-1.166-2.791-3.896-4.608-6.92-4.608H56.705c-4.143,0-7.5,3.358-7.5,7.5s3.357,7.5,7.5,7.5h7.04v54.216h-7.04    c-4.143,0-7.5,3.358-7.5,7.5s3.357,7.5,7.5,7.5h7.041v54.217h-7.041c-4.143,0-7.5,3.358-7.5,7.5s3.357,7.5,7.5,7.5h7.041v54.217    H7.5c-4.143,0-7.5,3.358-7.5,7.5S3.357,403.384,7.5,403.384z M100.705,388.384v-20.5c0-5.238,4.262-9.5,9.5-9.5s9.5,4.262,9.5,9.5    v20.5H100.705z M158.705,388.384v-20.5c0-5.238,4.262-9.5,9.5-9.5s9.5,4.262,9.5,9.5v20.5H158.705z M216.705,388.384v-20.5    c0-5.238,4.262-9.5,9.5-9.5s9.5,4.262,9.5,9.5v20.5H216.705z M313.371,388.384v-20.5c0-5.238,4.262-9.5,9.5-9.5s9.5,4.262,9.5,9.5    v20.5H313.371z M347.371,388.384v-20.5c0-13.509-10.99-24.5-24.5-24.5s-24.5,10.991-24.5,24.5v20.5H280.92l-22.663-54.217h115.408    v54.217H347.371z M293.705,319.167h-19v-20.5c0-5.238,4.262-9.5,9.5-9.5s9.5,4.262,9.5,9.5V319.167z M351.705,319.167h-19v-20.5    c0-5.238,4.262-9.5,9.5-9.5s9.5,4.262,9.5,9.5V319.167z M373.664,319.167h-6.959v-20.5c0-13.509-10.99-24.5-24.5-24.5h-0.001    c-13.509,0-24.499,10.991-24.499,24.5v20.5h-9v-20.5c0-13.509-10.99-24.5-24.5-24.5h-0.001c-13.509,0-24.499,10.991-24.499,24.5    v20.5h-7.719l-22.662-54.213l144.34-0.004V319.167z M193.705,319.167h-19v-20.5c0-5.238,4.262-9.5,9.5-9.5s9.5,4.262,9.5,9.5    V319.167z M184.205,274.167L184.205,274.167c-13.51,0-24.5,10.991-24.5,24.5v20.5h-25v-20.5c0-13.509-10.99-24.5-24.5-24.5h-0.001    c-13.509,0-24.499,10.991-24.499,24.5v20.5h-6.959v-54.213h134.32l22.662,54.213h-27.023v-20.5    C208.705,285.157,197.715,274.167,184.205,274.167z M119.705,319.167h-19v-20.5c0-5.238,4.262-9.5,9.5-9.5s9.5,4.262,9.5,9.5    V319.167z M119.705,249.949h-19v-20.5c0-5.238,4.262-9.5,9.5-9.5s9.5,4.262,9.5,9.5V249.949z M177.705,249.949h-19v-20.5    c0-5.238,4.262-9.5,9.5-9.5s9.5,4.262,9.5,9.5V249.949z M184.131,195.734l22.663,54.216h-14.089v-20.5    c0-13.509-10.99-24.5-24.5-24.5h-0.001c-13.509,0-24.499,10.991-24.499,24.5v20.5h-9v-20.5c0-13.509-10.99-24.5-24.5-24.5h-0.001    c-13.509,0-24.499,10.991-24.499,24.5v20.5h-6.96v-54.216H184.131z M78.746,334.167h163.252l22.664,54.217h-13.957v-20.5    c0-13.509-10.99-24.5-24.5-24.5h-0.001c-13.509,0-24.499,10.991-24.499,24.5v20.5h-9v-20.5c0-13.509-10.99-24.5-24.5-24.5h-0.001    c-13.509,0-24.499,10.991-24.499,24.5v20.5h-9v-20.5c0-13.509-10.99-24.5-24.5-24.5h-0.001c-13.509,0-24.499,10.991-24.499,24.5    v20.5h-6.959V334.167z"/>
		<path style="fill:#333333;" d="M446.979,416.883H7.5c-4.143,0-7.5,3.358-7.5,7.5s3.357,7.5,7.5,7.5h439.479    c4.143,0,7.5-3.358,7.5-7.5S451.121,416.883,446.979,416.883z"/>
		<path style="fill:#333333;" d="M366.856,138.091c31.843,0,57.748-25.905,57.748-57.747c0-31.842-25.905-57.748-57.748-57.748    c-31.842,0-57.747,25.905-57.747,57.748C309.109,112.185,335.015,138.091,366.856,138.091z M366.856,37.596    c23.571,0,42.748,19.176,42.748,42.748c0,23.571-19.177,42.747-42.748,42.747s-42.747-19.176-42.747-42.747    C324.109,56.772,343.285,37.596,366.856,37.596z"/>
	</g>
</g>















</svg>
