<?xml version="1.0" encoding="iso-8859-1"?>
<!-- Generator: Adobe Illustrator 19.0.0, SVG Export Plug-In . SVG Version: 6.00 Build 0)  -->
<svg xmlns="http://www.w3.org/2000/svg" xmlns:xlink="http://www.w3.org/1999/xlink" version="1.1" id="Layer_1" x="0px" y="0px" viewBox="0 0 454.478 454.478" style="enable-background:new 0 0 454.478 454.478;" xml:space="preserve" width="512" height="512">
<g>
	<rect x="7.5" y="402.399" style="fill:#CCCCCC;" width="439.478" height="25.499"/>
	<path style="fill:#666666;" d="M238.982,384.938v14h-24v-14c0-6.63,5.37-12,12-12C233.612,372.938,238.982,378.308,238.982,384.938   z"/>
	<polygon style="fill:#CCCCCC;" points="377.972,299.368 384.262,277.148 401.592,338.348 399.572,398.938 297.572,398.938    297.572,357.348 297.572,338.348 314.912,277.148 332.252,338.348 349.582,277.148 366.922,338.348  "/>
	<polygon style="fill:#999999;" points="349.582,200.148 377.972,299.368 366.922,338.348 349.582,277.148 332.252,338.348    314.912,277.148 297.572,338.348 297.572,301.438 296.622,266.708 314.912,200.148 332.252,261.348  "/>
	<polygon style="fill:#B3B3B3;" points="297.572,357.348 297.572,398.938 259.322,398.938 259.322,372.348 255.712,352.738    275.982,281.148  "/>
	<polygon style="fill:#CCCCCC;" points="296.622,266.708 297.572,301.438 297.572,338.348 297.572,357.348 275.982,281.148    255.712,352.738 239.062,262.418 239.072,262.418 260.072,78.358 272.072,210.358 293.072,136.198  "/>
	<path style="fill:#CCCCCC;" d="M259.322,372.348v26.59h-20.34v-14c0-6.63-5.37-12-12-12c-6.63,0-12,5.37-12,12v14h-19.83v-26.59   l3.61-19.61l16.64-90.32l11.83-64.22l11.83,64.22l16.65,90.32L259.322,372.348z"/>
	<polygon style="fill:#CCCCCC;" points="157.852,266.708 161.402,136.198 182.402,210.358 194.402,78.358 215.402,262.418    198.762,352.738 178.492,281.148 156.902,357.348 156.902,338.348 156.902,301.438  "/>
	<polygon style="fill:#B3B3B3;" points="198.762,352.738 195.152,372.348 195.152,398.938 156.902,398.938 156.902,357.348    178.492,281.148  "/>
	<polygon style="fill:#999999;" points="157.852,266.708 156.902,301.438 156.902,338.348 139.562,277.148 122.232,338.348    104.892,277.148 87.552,338.348 76.512,299.358 104.892,200.148 122.232,261.348 139.562,200.148  "/>
	<polygon style="fill:#CCCCCC;" points="76.512,299.358 87.552,338.348 104.892,277.148 122.232,338.348 139.562,277.148    156.902,338.348 156.902,357.348 156.902,398.938 54.912,398.938 52.882,338.348 70.222,277.148  "/>
	<path style="fill:#FFD039;" d="M86.392,27.048c27.75,0,50.24,22.49,50.24,50.24s-22.49,50.25-50.24,50.25s-50.25-22.5-50.25-50.25   S58.642,27.048,86.392,27.048z"/>
	<g>
		<path style="fill:#333333;" d="M7.5,406.436h439.478c4.143,0,7.5-3.358,7.5-7.5s-3.357-7.5-7.5-7.5h-39.653l1.766-52.834    c0.025-0.775-0.068-1.549-0.28-2.294l-17.337-61.204c-0.914-3.228-3.861-5.456-7.216-5.456c-2.469,0-4.711,1.214-6.09,3.139    l-21.372-74.702c-0.921-3.219-3.863-5.437-7.211-5.437c-0.003,0-0.007,0-0.01,0c-3.352,0.004-6.293,2.231-7.206,5.456    l-10.121,35.729l-10.121-35.729c-0.914-3.229-3.861-5.456-7.216-5.456c-0.01,0-0.02,0-0.03,0    c-3.365,0.014-6.311,2.268-7.202,5.514l-4.926,17.933l-2.181-80.103c-0.101-3.704-2.891-6.778-6.566-7.238    c-3.68-0.464-7.138,1.833-8.146,5.398l-9.978,35.234l-8.338-91.71c-0.348-3.83-3.537-6.776-7.383-6.82    c-3.826-0.074-7.102,2.828-7.537,6.649l-15.296,134.065l-2.715-14.734c-0.655-3.558-3.758-6.141-7.375-6.141    c-3.618,0-6.72,2.583-7.376,6.141l-2.711,14.717L201.855,77.506c-0.433-3.792-3.643-6.65-7.45-6.65c-0.029,0-0.059,0-0.087,0    c-3.846,0.044-7.035,2.99-7.383,6.82l-8.337,91.71l-9.977-35.234c-1.01-3.565-4.472-5.862-8.146-5.398    c-3.676,0.459-6.466,3.534-6.567,7.238l-2.182,80.104l-4.926-17.935c-0.891-3.246-3.836-5.5-7.202-5.514c-0.01,0-0.02,0-0.03,0    c-3.354,0-6.301,2.227-7.216,5.456l-10.121,35.729l-10.12-35.729c-0.914-3.225-3.855-5.452-7.207-5.456c-0.003,0-0.006,0-0.01,0    c-3.347,0-6.29,2.218-7.211,5.437l-21.372,74.702c-1.379-1.926-3.621-3.139-6.091-3.139c-3.355,0-6.302,2.228-7.216,5.456    l-17.337,61.204c-0.211,0.746-0.305,1.52-0.279,2.294l1.767,52.834H7.5c-4.142,0-7.5,3.358-7.5,7.5S3.358,406.436,7.5,406.436z     M164.404,358.387l14.088-49.72l12.58,44.431c0,0-3.42,18.792-3.42,19.248v19.09h-23.248V358.387z M222.484,391.436v-6.5    c0-2.481,2.019-4.5,4.5-4.5c2.482,0,4.5,2.019,4.5,4.5v6.5H222.484z M263.404,353.105l12.583-44.438l14.088,49.72v33.048h-23.252    v-19.09C266.822,371.89,263.404,353.105,263.404,353.105z M394.06,339.27l-1.744,52.166h-87.241v-52.043l9.837-34.727    l10.121,35.729c0.914,3.228,3.861,5.456,7.216,5.456s6.302-2.228,7.216-5.456l10.121-35.729l10.121,35.729    c0.914,3.228,3.861,5.456,7.216,5.456s6.302-2.228,7.216-5.456l10.12-35.728L394.06,339.27z M315.022,228.059l10.01,35.336    c0.914,3.228,3.861,5.456,7.216,5.456s6.302-2.228,7.216-5.456l10.157-35.855l20.548,71.826l-3.248,11.466l-10.121-35.728    c-0.914-3.228-3.861-5.456-7.216-5.456s-6.302,2.228-7.216,5.456l-10.121,35.729l-10.121-35.729    c-0.914-3.228-3.861-5.456-7.216-5.456s-6.302,2.228-7.216,5.456l-3.043,10.742l-0.496-18.226L315.022,228.059z M259.23,151.914    l5.375,59.122c0.327,3.6,3.176,6.454,6.775,6.789c3.604,0.338,6.926-1.947,7.909-5.424l7.623-26.92l3.161,116.053v1.831    l-6.874-24.261c-0.914-3.228-3.861-5.456-7.217-5.456c-3.354,0-6.302,2.229-7.215,5.457l-11.51,40.65l-10.609-57.579    L259.23,151.914z M251.822,373.031v18.405h-5.338v-6.5c0-10.752-8.748-19.5-19.5-19.5s-19.5,8.748-19.5,19.5v6.5h-4.832v-18.405    l24.585-133.442L251.822,373.031z M167.564,185.479l7.623,26.92c0.985,3.479,4.31,5.768,7.91,5.424    c3.6-0.334,6.448-3.189,6.775-6.789l5.375-59.122l12.578,110.246l-10.609,57.582l-11.507-40.639    c-0.914-3.228-3.861-5.456-7.216-5.457h0c-3.354,0-6.301,2.228-7.216,5.456l-6.875,24.262v-1.832L167.564,185.479z     M104.857,227.54l10.156,35.855c0.915,3.228,3.861,5.456,7.216,5.456c3.354,0,6.302-2.228,7.216-5.456l10.01-35.336l10.867,39.559    l-0.496,18.228l-3.042-10.741c-0.915-3.228-3.861-5.456-7.216-5.456s-6.302,2.228-7.216,5.456l-10.121,35.729l-10.12-35.729    c-0.915-3.228-3.861-5.456-7.216-5.456c-3.354,0-6.302,2.228-7.216,5.456l-10.121,35.729l-3.248-11.467L104.857,227.54z     M60.417,339.27l9.802-34.604l10.121,35.729c0.915,3.228,3.861,5.456,7.216,5.456s6.302-2.228,7.216-5.456l10.121-35.729    l10.12,35.729c0.915,3.228,3.861,5.456,7.216,5.456s6.302-2.228,7.216-5.456l10.121-35.729l9.837,34.727v52.042H62.162    L60.417,339.27z"/>
		<path style="fill:#333333;" d="M446.978,419.934H7.5c-4.142,0-7.5,3.358-7.5,7.5s3.358,7.5,7.5,7.5h439.478    c4.143,0,7.5-3.358,7.5-7.5S451.12,419.934,446.978,419.934z"/>
		<path style="fill:#333333;" d="M86.39,135.039c31.842,0,57.748-25.905,57.748-57.748S118.232,19.543,86.39,19.543    S28.642,45.449,28.642,77.291S54.547,135.039,86.39,135.039z M86.39,34.543c23.571,0,42.748,19.176,42.748,42.748    s-19.176,42.748-42.748,42.748s-42.748-19.176-42.748-42.748S62.818,34.543,86.39,34.543z"/>
		<circle style="fill:#333333;" cx="269.492" cy="239.198" r="7.5"/>
		<circle style="fill:#333333;" cx="184.952" cy="239.048" r="7.5"/>
		<circle style="fill:#333333;" cx="73.892" cy="361.198" r="7.5"/>
		<circle style="fill:#333333;" cx="104.892" cy="361.198" r="7.5"/>
		<circle style="fill:#333333;" cx="135.892" cy="361.198" r="7.5"/>
		<circle style="fill:#333333;" cx="318.582" cy="361.198" r="7.5"/>
		<circle style="fill:#333333;" cx="349.582" cy="361.198" r="7.5"/>
		<circle style="fill:#333333;" cx="380.582" cy="361.198" r="7.5"/>
	</g>
</g>















</svg>
