<?xml version="1.0" encoding="iso-8859-1"?>
<!-- Generator: Adobe Illustrator 19.0.0, SVG Export Plug-In . SVG Version: 6.00 Build 0)  -->
<svg xmlns="http://www.w3.org/2000/svg" xmlns:xlink="http://www.w3.org/1999/xlink" version="1.1" id="Layer_1" x="0px" y="0px" viewBox="0 0 454.479 454.479" style="enable-background:new 0 0 454.479 454.479;" xml:space="preserve" width="512" height="512">
<g>
	<rect x="7.5" y="335.15" style="fill:#EAB932;" width="439.478" height="25.499"/>
	<path style="fill:#FFD039;" d="M225.202,158.488l-23.44,34.69c-22.61-4.9-39.55-25.02-39.55-49.1c0-27.75,22.5-50.25,50.25-50.25   s50.24,22.5,50.24,50.25c0,16.43-7.88,31.02-20.07,40.18l-17.42-25.78L225.202,158.488z"/>
	<polygon style="fill:#EAB932;" points="334.682,213.838 414.632,332.148 374.872,332.148 334.672,213.848  "/>
	<polygon style="fill:#EAB932;" points="298.652,267.148 342.532,332.078 280.852,332.078 225.202,158.488 225.212,158.478    242.632,184.258  "/>
	<polygon style="fill:#EAB932;" points="230.682,332.078 230.732,332.148 166.902,332.148 133.202,187.838 169.292,241.228  "/>
	<polygon style="fill:#FFD039;" points="342.532,332.078 298.652,267.148 334.672,213.848 374.872,332.148 280.872,332.148    280.852,332.078  "/>
	<polygon style="fill:#FFD039;" points="225.202,158.488 280.852,332.078 265.742,332.078 254.772,332.078 230.682,332.078    169.292,241.228 201.762,193.178  "/>
	<polygon style="fill:#FFD039;" points="133.202,187.838 166.902,332.148 35.682,332.148  "/>
	<g>
		<path style="fill:#333333;" d="M7.5,339.65h439.479c4.143,0,7.5-3.358,7.5-7.5s-3.357-7.5-7.5-7.5h-28.367l-77.719-115.009    c-1.395-2.064-3.723-3.301-6.214-3.301c-2.49,0-4.819,1.237-6.214,3.3l-29.816,44.116l-46.058-68.153    c11.264-10.829,17.608-25.607,17.608-41.523c0-31.844-25.902-57.75-57.74-57.75c-31.844,0-57.75,25.907-57.75,57.75    c0,23.355,14.323,44.261,35.249,53.17l-20.668,30.585l-29.87-44.199c-1.395-2.064-3.723-3.301-6.214-3.301    s-4.819,1.237-6.214,3.301L31.695,324.65H7.5c-4.143,0-7.5,3.358-7.5,7.5S3.357,339.65,7.5,339.65z M172.852,324.65    l-23.101-98.937l66.861,98.937H172.852z M286.344,324.65L248.35,206.119l80.104,118.531H286.344z M380.24,324.65l-20.489-60.314    l40.758,60.314H380.24z M332.433,230.557l31.964,94.093h-17.838l-38.859-57.5L332.433,230.557z M169.708,144.08    c0-23.573,19.178-42.75,42.75-42.75c23.567,0,42.74,19.178,42.74,42.75c0,10.876-4.006,21.033-11.181,28.838l-12.595-18.638    c-1.395-2.063-3.723-3.3-6.214-3.3s-4.819,1.237-6.214,3.301l-20.425,30.224C181.588,178.657,169.708,162.385,169.708,144.08z     M222.776,175.473l47.817,149.177l-35.925-0.07l-56.328-83.351L222.776,175.473z M129.805,206.26l27.643,118.39H49.798    L129.805,206.26z"/>
		<path style="fill:#333333;" d="M446.979,353.149H7.5c-4.143,0-7.5,3.358-7.5,7.5s3.357,7.5,7.5,7.5h439.479    c4.143,0,7.5-3.358,7.5-7.5S451.121,353.149,446.979,353.149z"/>
	</g>
</g>















</svg>
