<?xml version="1.0" encoding="iso-8859-1"?>
<!-- Generator: Adobe Illustrator 19.0.0, SVG Export Plug-In . SVG Version: 6.00 Build 0)  -->
<svg xmlns="http://www.w3.org/2000/svg" xmlns:xlink="http://www.w3.org/1999/xlink" version="1.1" id="Layer_1" x="0px" y="0px" viewBox="0 0 454.479 454.479" style="enable-background:new 0 0 454.479 454.479;" xml:space="preserve" width="512" height="512">
<g>
	<rect x="7.5" y="386.234" style="fill:#F2F2F2;" width="439.478" height="25.499"/>
	<path style="fill:#F2F2F2;" d="M87.032,383.239h-50.24c0-13.88,11.25-25.13,25.12-25.13   C75.792,358.109,87.032,369.359,87.032,383.239z"/>
	<path style="fill:#E6E6E6;" d="M376.632,346.319c-13.68,3.08-23.9,15.31-23.9,29.92v7h-30v-7c0-6.88,2.26-13.24,6.09-18.35   c5.6-7.48,14.52-12.32,24.58-12.32h22.88C376.402,345.819,376.522,346.069,376.632,346.319z"/>
	<path style="fill:#CCCCCC;" d="M383.402,345.569c16.93,0,30.66,13.73,30.66,30.67v7h-61.33v-7c0-14.61,10.22-26.84,23.9-29.92   C378.812,345.829,381.072,345.569,383.402,345.569z"/>
	<path style="fill:#E6E6E6;" d="M365.092,327.499h-35.9c-8.02-19.78-20.26-32.57-34.03-32.98c0.41-0.02,0.83-0.02,1.24-0.02   C324.192,294.499,348.972,307.379,365.092,327.499z"/>
	<path style="fill:#F2F2F2;" d="M322.732,376.239v7h-72.73v-0.74c0-9.05,0.69-17.78,1.97-26h75.43l1.42,1.39   C324.992,362.999,322.732,369.359,322.732,376.239z"/>
	<path style="fill:#F2F2F2;" d="M329.192,327.499h35.9c4.42,5.52,8.19,11.58,11.19,18.07h-22.88c-10.06,0-18.98,4.84-24.58,12.32   l-1.42-1.39h-75.43c1.67-10.68,4.33-20.49,7.78-29H329.192z"/>
	<path style="fill:#F2F2F2;" d="M329.192,327.499h-69.44c7.77-19.17,19.51-31.77,32.75-32.91c0.88-0.04,1.77-0.07,2.66-0.07   C308.932,294.929,321.172,307.719,329.192,327.499z"/>
	<path style="fill:#B3B3B3;" d="M212.402,356.499h39.57c-1.28,8.22-1.97,16.95-1.97,26v0.74h-41.6v-0.74   c0-9.06,1.37-17.8,3.92-26.02L212.402,356.499z"/>
	<path style="fill:#B3B3B3;" d="M230.402,327.499h29.35c-3.45,8.51-6.11,18.32-7.78,29h-39.57l-0.08-0.02   c0.96-3.15,2.11-6.22,3.42-9.2c3.28-7.53,7.6-14.51,12.76-20.76L230.402,327.499z"/>
	<path style="fill:#B3B3B3;" d="M292.502,294.589c-13.24,1.14-24.98,13.74-32.75,32.91h-29.35l-1.9-0.98   C243.862,307.899,266.752,295.709,292.502,294.589z"/>
	<path style="fill:#F2F2F2;" d="M215.742,347.279c-1.31,2.98-2.46,6.05-3.42,9.2c-2.55,8.22-3.92,16.96-3.92,26.02v0.74h-78.74   v-0.74c0-27.75,22.5-50.25,50.25-50.25C193.942,332.249,206.632,337.999,215.742,347.279z"/>
	<path style="fill:#3B9DFF;" d="M409.272,77.999c2.78,2.78,4.5,6.63,4.5,10.87c0,8.49-6.88,15.37-15.37,15.37h-88.74   c-4.24,0-8.09-1.72-10.87-4.5c-2.79-2.78-4.51-6.63-4.51-10.87c0-8.49,6.89-15.37,15.38-15.37h-22.26c-4.24,0-8.09-1.72-10.87-4.51   c-2.78-2.78-4.5-6.62-4.5-10.87c0-8.49,6.88-15.37,15.37-15.37h53c4.25,0,8.1,1.72,10.88,4.5c2.78,2.78,4.5,6.62,4.5,10.87   c0,8.49-6.88,15.38-15.38,15.38h58C402.642,73.499,406.492,75.219,409.272,77.999z"/>
	<path style="fill:#3B9DFF;" d="M270.202,116.249c2.79,2.78,4.51,6.62,4.51,10.87c0,8.49-6.89,15.38-15.38,15.38h-133.67   c-4.24,0-8.09-1.72-10.87-4.51c-2.79-2.78-4.51-6.62-4.51-10.87c0-8.49,6.89-15.37,15.38-15.37h-83.26   c-4.24,0-8.09-1.72-10.87-4.51c-2.79-2.78-4.51-6.63-4.51-10.87c0-8.49,6.89-15.37,15.38-15.37h114c4.25,0,8.1,1.72,10.88,4.5   c2.78,2.78,4.5,6.63,4.5,10.87c0,8.49-6.88,15.38-15.38,15.38h102.93C263.582,111.749,267.422,113.469,270.202,116.249z"/>
	<g>
		<path style="fill:#333333;" d="M7.5,390.734h439.479c4.143,0,7.5-3.358,7.5-7.5s-3.357-7.5-7.5-7.5h-25.426    c-0.27-20.814-17.277-37.667-38.154-37.667h-2.471c-16.417-31.202-48.985-51.073-84.529-51.073    c-35.549,0-66.62,19.526-83.06,48.415c-9.692-6.921-21.254-10.665-33.43-10.665c-29.556,0-53.981,22.322-57.341,50.99H93.656    c-3.398-14.384-16.336-25.124-31.743-25.124c-15.408,0-28.346,10.74-31.744,25.124H7.5c-4.143,0-7.5,3.358-7.5,7.5    S3.357,390.734,7.5,390.734z M315.244,375.734h-57.598c0.158-3.982,0.456-7.901,0.888-11.74h58.722    C316.002,367.689,315.297,371.634,315.244,375.734z M345.244,375.734h-15c0.266-12.44,10.38-22.494,22.845-22.659    C348.261,359.38,345.354,367.224,345.244,375.734z M383.398,353.068c12.607,0,22.886,10.124,23.154,22.667h-46.309    C360.512,363.191,370.792,353.068,383.398,353.068z M363.516,338.068h-10.118c-4.26,0-8.355,0.712-12.184,2.006    c-0.453-1.732-0.938-3.418-1.441-5.079h21.603C362.113,336,362.825,337.025,363.516,338.068z M347.094,319.994h-12.957    c-1.952-4.24-4.089-8.13-6.4-11.623C334.705,311.324,341.224,315.24,347.094,319.994z M292.878,302.084    c0.77-0.033,1.544-0.047,2.32-0.059c7.934,0.38,15.74,6.992,22.064,17.97h-45.549C277.911,309.278,285.43,302.888,292.878,302.084    z M264.944,334.994H324c1.413,4.05,2.664,8.39,3.713,12.988l0.068-0.016c-0.368,0.334-0.725,0.68-1.08,1.027H261    C262.077,344.093,263.396,339.408,264.944,334.994z M259.771,310.846c-1.742,2.841-3.378,5.895-4.893,9.148h-9.14    C250.067,316.479,254.77,313.414,259.771,310.846z M231.461,334.994h17.718c-1.361,4.447-2.535,9.123-3.5,14h-22.45    C225.507,344.038,228.267,339.349,231.461,334.994z M218.068,363.994h25.373c-0.394,3.831-0.669,7.747-0.815,11.74h-26.423    C216.538,371.731,217.167,367.811,218.068,363.994z M179.908,339.744c9.951,0,19.352,3.372,26.94,9.567    c-3.095,8.325-5.059,17.195-5.707,26.423h-63.443C140.949,355.364,158.636,339.744,179.908,339.744z M61.913,365.611    c7.033,0,13.1,4.151,15.924,10.124H45.988C48.813,369.762,54.88,365.611,61.913,365.611z"/>
		<path style="fill:#333333;" d="M446.979,404.233H7.5c-4.143,0-7.5,3.358-7.5,7.5s3.357,7.5,7.5,7.5h439.479    c4.143,0,7.5-3.358,7.5-7.5S451.121,404.233,446.979,404.233z"/>
		<path style="fill:#333333;" d="M42.398,119.246h61.782c-0.903,2.457-1.396,5.108-1.396,7.875    c0,12.613,10.262,22.874,22.874,22.874h133.677c12.613,0,22.875-10.261,22.875-22.874c0-12.613-10.262-22.875-22.875-22.875    h-81.45c0.903-2.456,1.396-5.109,1.396-7.874c0-12.613-10.262-22.874-22.875-22.874H42.398c-12.613,0-22.874,10.261-22.874,22.874    S29.785,119.246,42.398,119.246z M42.398,88.498h114.008c4.343,0,7.875,3.532,7.875,7.874s-3.532,7.874-7.875,7.874    c-4.143,0-7.5,3.358-7.5,7.5s3.357,7.5,7.5,7.5h102.929c4.342,0,7.875,3.533,7.875,7.875s-3.533,7.874-7.875,7.874H125.658    c-4.342,0-7.874-3.532-7.874-7.874s3.532-7.875,7.874-7.875c4.143,0,7.5-3.358,7.5-7.5s-3.357-7.5-7.5-7.5h-83.26    c-4.342,0-7.874-3.532-7.874-7.874S38.057,88.498,42.398,88.498z"/>
		<path style="fill:#333333;" d="M287.404,80.994h0.776c-0.903,2.457-1.396,5.108-1.396,7.875c0,12.613,10.262,22.874,22.874,22.874    h88.74c12.612,0,22.874-10.261,22.874-22.874c0-12.613-10.262-22.875-22.874-22.875h-36.514c0.903-2.456,1.396-5.109,1.396-7.874    c0-12.613-10.262-22.875-22.875-22.875h-53.002c-12.613,0-22.875,10.261-22.875,22.875    C264.529,70.733,274.791,80.994,287.404,80.994z M287.404,50.246h53.002c4.342,0,7.875,3.533,7.875,7.875    s-3.533,7.874-7.875,7.874c-4.143,0-7.5,3.358-7.5,7.5s3.357,7.5,7.5,7.5h57.992c4.342,0,7.874,3.533,7.874,7.875    s-3.532,7.874-7.874,7.874h-88.74c-4.342,0-7.874-3.532-7.874-7.874s3.532-7.875,7.874-7.875c4.143,0,7.5-3.358,7.5-7.5    s-3.357-7.5-7.5-7.5h-22.254c-4.343,0-7.875-3.532-7.875-7.874S283.062,50.246,287.404,50.246z"/>
		<circle style="fill:#333333;" cx="397.862" cy="177.348" r="7.5"/>
		<circle style="fill:#333333;" cx="337.402" cy="236.489" r="7.5"/>
		<circle style="fill:#333333;" cx="230.402" cy="175.498" r="7.5"/>
		<circle style="fill:#333333;" cx="215.402" cy="277.498" r="7.5"/>
		<circle style="fill:#333333;" cx="134.402" cy="235.498" r="7.5"/>
		<circle style="fill:#333333;" cx="84.402" cy="300.498" r="7.5"/>
		<circle style="fill:#333333;" cx="36.402" cy="179.498" r="7.5"/>
	</g>
</g>















</svg>
