<?xml version="1.0" encoding="iso-8859-1"?>
<!-- Generator: Adobe Illustrator 19.0.0, SVG Export Plug-In . SVG Version: 6.00 Build 0)  -->
<svg xmlns="http://www.w3.org/2000/svg" xmlns:xlink="http://www.w3.org/1999/xlink" version="1.1" id="Layer_1" x="0px" y="0px" viewBox="0 0 454.479 454.479" style="enable-background:new 0 0 454.479 454.479;" xml:space="preserve" width="512" height="512">
<g>
	<rect x="7.5" y="391.886" style="fill:#3B9DFF;" width="439.478" height="25.499"/>
	<path style="fill:#FFD039;" d="M338.212,390.376c-5.89,2.66-11.36,5.51-23.09,5.51c-21.97,0-21.97-10-43.95-10   c-21.97,0-21.97,10-43.95,10c-21.97,0-21.97-10-43.94-10s-21.97,10-43.94,10c-15.53,0-20.09-4.99-29.17-7.92   c23.96-37.21,65.73-61.84,113.27-61.84C271.992,326.126,314.532,351.826,338.212,390.376z"/>
	<g>
		<path style="fill:#EAB932;" d="M223.442,326.126c-11.933,0-23.501,1.554-34.516,4.467c32.122,8.49,59.531,28.555,77.51,55.472    c1.464-0.112,3.027-0.178,4.736-0.178c21.98,0,21.98,10,43.95,10c11.73,0,17.2-2.85,23.09-5.51    C314.532,351.826,271.992,326.126,223.442,326.126z"/>
	</g>
	<path style="fill:#3B9DFF;" d="M414.802,83.196c2.79,2.78,4.51,6.62,4.51,10.87c0,8.49-6.89,15.37-15.38,15.37h-74.86   c-4.25,0-8.09-1.72-10.88-4.5c-2.78-2.78-4.5-6.62-4.5-10.87c0-8.49,6.88-15.38,15.38-15.38h-44.12c-4.25,0-8.09-1.72-10.87-4.5   c-2.79-2.78-4.51-6.63-4.51-10.87c0-8.49,6.89-15.37,15.38-15.37h74.86c4.25,0,8.09,1.72,10.88,4.5c2.78,2.78,4.5,6.63,4.5,10.87   c0,8.49-6.88,15.37-15.38,15.37h44.12C408.182,78.686,412.022,80.406,414.802,83.196z"/>
	<path style="fill:#FFD039;" d="M115.812,30.096c27.75,0,50.25,22.49,50.25,50.25c0,27.75-22.5,50.24-50.25,50.24   s-50.25-22.49-50.25-50.24C65.562,52.586,88.062,30.096,115.812,30.096z"/>
	<g>
		<path style="fill:#333333;" d="M7.5,393.386c9.36,0,13.766,2.005,18.867,4.326c5.844,2.659,12.467,5.674,25.079,5.674    c12.613,0,19.236-3.014,25.08-5.674c5.102-2.322,9.507-4.326,18.867-4.326c9.359,0,13.765,2.005,18.866,4.326    c5.844,2.659,12.467,5.674,25.08,5.674c12.612,0,19.234-3.014,25.078-5.674c5.1-2.321,9.504-4.326,18.862-4.326    c9.36,0,13.766,2.005,18.867,4.326c5.844,2.659,12.467,5.674,25.079,5.674c12.613,0,19.236-3.014,25.08-5.674    c5.102-2.322,9.507-4.326,18.867-4.326c9.361,0,13.767,2.005,18.868,4.326c5.844,2.659,12.468,5.674,25.081,5.674    s19.236-3.014,25.08-5.674c5.102-2.322,9.507-4.326,18.867-4.326c9.363,0,13.77,2.005,18.871,4.327    c5.845,2.659,12.469,5.673,25.083,5.673s19.238-3.014,25.083-5.673c5.102-2.322,9.509-4.327,18.871-4.327    c4.143,0,7.5-3.358,7.5-7.5s-3.357-7.5-7.5-7.5c-12.615,0-19.239,3.014-25.084,5.674c-5.102,2.322-9.508,4.326-18.87,4.326    s-13.769-2.005-18.87-4.326c-5.845-2.659-12.469-5.674-25.084-5.674c-7.9,0-13.449,1.182-17.93,2.72    c-12.123-17.874-28.24-32.888-46.985-43.661c-3.624-2.083-7.342-3.985-11.127-5.733c9.054-30.368,24.254-58.662,44.675-83.013    c0.048,6.392-0.675,16.329-4.347,27.763c-1.267,3.944,0.903,8.168,4.848,9.434c0.762,0.245,1.534,0.361,2.295,0.361    c3.171,0,6.117-2.027,7.139-5.208c3.218-10.019,4.505-19.056,4.916-26.2c4.821,6.417,9.384,15.098,11.277,26.277    c0.62,3.66,3.794,6.249,7.386,6.249c0.416,0,0.838-0.035,1.262-0.106c4.084-0.692,6.834-4.563,6.142-8.647    c-3.107-18.344-11.956-31.305-19.86-39.6c3.023,0,6.554,0.351,10.596,1.355c4.015,0.999,8.087-1.451,9.086-5.471    c0.999-4.02-1.45-8.088-5.471-9.087c-12.352-3.068-21.761-1.697-27.592,0.061c-5.013-9.096-17.97-25.744-45.723-25.85    c-0.01,0-0.02,0-0.029,0c-4.128,0-7.483,3.339-7.499,7.471c-0.016,4.142,3.329,7.513,7.472,7.529    c13.286,0.051,21.789,5.254,26.993,10.514c-9.188,0.272-20.84,2.22-30.61,8.941c-3.412,2.348-4.275,7.017-1.928,10.43    c1.454,2.114,3.8,3.25,6.186,3.25c1.465,0,2.945-0.428,4.244-1.322c6.2-4.265,13.853-5.807,20.418-6.213    c-20.791,25.214-36.378,54.309-45.862,85.494c-7.962-2.691-16.166-4.658-24.5-5.906c1.948-26.77-0.714-53.336-7.936-79.178    c6.006,2.4,12.79,6.21,16.983,12.045c1.465,2.039,3.764,3.124,6.096,3.123c1.517,0,3.047-0.458,4.371-1.41    c3.363-2.417,4.131-7.104,1.713-10.468c-5.819-8.098-14.394-13.31-22.071-16.594c6.135-1.728,14.24-1.995,23.886,2.275    c3.782,1.676,8.217-0.034,9.894-3.823c1.677-3.788-0.035-8.217-3.823-9.894c-22.972-10.169-40.108-2.008-48.422,3.908    c-5.145-3.902-13.769-9.23-24.917-11.659c-4.053-0.883-8.043,1.685-8.925,5.731c-0.882,4.047,1.685,8.043,5.731,8.925    c4.034,0.879,7.654,2.279,10.754,3.817c-7.024,2.876-15.347,7.555-23.057,15.134c-2.954,2.904-2.995,7.652-0.092,10.606    c1.468,1.494,3.408,2.243,5.349,2.243c1.898,0,3.797-0.716,5.257-2.151c4.173-4.101,8.596-7.121,12.742-9.346    c-1.039,2.189-2.044,4.526-2.961,6.993c-1.442,3.883,0.536,8.2,4.419,9.642c0.86,0.32,1.743,0.471,2.61,0.471    c3.045,0,5.909-1.868,7.031-4.89c1.103-2.97,2.369-5.723,3.653-8.2c6.219,23.289,8.49,47.184,6.778,71.258    c-2.051-0.089-4.105-0.15-6.163-0.15c-9.582,0-19.103,0.978-28.417,2.874c-11.973-34.321-33.333-70.61-57.419-97.56    c7.127-0.654,15.996-0.32,23.235,3.557c1.127,0.604,2.339,0.89,3.534,0.89c2.677,0,5.267-1.436,6.618-3.96    c1.956-3.651,0.581-8.197-3.07-10.153c-9.785-5.241-20.988-6.023-30.076-5.39c5.112-4.978,13.117-9.652,25.306-10.13    c4.139-0.162,7.362-3.649,7.2-7.788c-0.158-4.039-3.482-7.206-7.489-7.206c-0.099,0-0.198,0.002-0.299,0.006    c-26.845,1.052-39.293,17.113-44.314,26.545c-10.339-2.09-30.683-3.681-49.635,9.613c-3.391,2.379-4.211,7.056-1.832,10.447    c2.378,3.391,7.055,4.212,10.447,1.833c9.887-6.936,20.367-8.512,28.453-8.309c-9.249,10.078-20.026,27.191-19.958,52.178    c0.012,4.135,3.367,7.479,7.5,7.479c0.007,0,0.014,0,0.021,0c4.142-0.011,7.491-3.378,7.479-7.521    c-0.043-15.668,5.167-27.444,10.907-35.669c0.659,7.133,2.264,16.141,5.844,26.067c1.103,3.056,3.984,4.958,7.056,4.958    c0.845,0,1.704-0.144,2.544-0.447c3.896-1.405,5.916-5.703,4.512-9.599c-4.071-11.289-5.147-21.188-5.326-27.578    c22.334,24.986,42.823,59.609,54.19,91.521c-9.629,3.048-18.936,7.105-27.726,12.157c-18.149,10.43-33.847,24.827-45.83,41.955    c-3.225-0.621-6.972-1.014-11.5-1.014c-12.613,0-19.236,3.014-25.08,5.674c-5.102,2.322-9.507,4.326-18.867,4.326    c-9.359,0-13.765-2.005-18.866-4.326c-5.844-2.659-12.467-5.674-25.08-5.674c-4.143,0-7.5,3.358-7.5,7.5    S3.357,393.386,7.5,393.386z M160.197,350.45c19.149-11.005,41.019-16.822,63.242-16.822c14.244,0,28.339,2.402,41.669,7.016    c-0.734,3.076-1.417,6.167-2.034,9.275c-0.807,4.063,1.834,8.01,5.896,8.816c0.493,0.098,0.983,0.145,1.468,0.145    c3.507,0,6.641-2.472,7.349-6.042c0.423-2.134,0.883-4.258,1.366-6.377c2.551,1.244,5.063,2.571,7.529,3.988    c15.842,9.104,29.587,21.596,40.206,36.43c-3.065,0.912-6.682,1.506-11.764,1.506c-9.361,0-13.767-2.005-18.868-4.326    c-5.844-2.659-12.468-5.674-25.081-5.674s-19.236,3.014-25.08,5.674c-5.102,2.322-9.507,4.326-18.867,4.326    c-9.359,0-13.765-2.005-18.866-4.326c-5.844-2.659-12.467-5.674-25.08-5.674c-12.611,0-19.233,3.014-25.076,5.674    c-5.101,2.321-9.505,4.326-18.864,4.326c-8.632,0-13.05-1.706-17.687-3.792C132.029,370.759,145.174,359.084,160.197,350.45z"/>
		<path style="fill:#333333;" d="M446.979,406.885c-12.615,0-19.239,3.014-25.084,5.674c-5.102,2.322-9.508,4.326-18.87,4.326    s-13.769-2.005-18.87-4.326c-5.845-2.659-12.469-5.674-25.084-5.674c-12.613,0-19.236,3.014-25.08,5.674    c-5.102,2.322-9.507,4.326-18.867,4.326c-9.361,0-13.767-2.005-18.868-4.326c-5.844-2.659-12.468-5.674-25.081-5.674    s-19.236,3.014-25.08,5.674c-5.102,2.322-9.507,4.326-18.867,4.326c-9.359,0-13.765-2.005-18.866-4.326    c-5.844-2.659-12.467-5.674-25.08-5.674c-12.611,0-19.233,3.014-25.076,5.674c-5.101,2.321-9.505,4.326-18.864,4.326    c-9.36,0-13.766-2.005-18.867-4.326c-5.844-2.659-12.467-5.674-25.079-5.674c-12.613,0-19.236,3.014-25.08,5.674    c-5.102,2.322-9.507,4.326-18.867,4.326c-9.359,0-13.765-2.005-18.866-4.326c-5.844-2.659-12.467-5.674-25.08-5.674    c-4.143,0-7.5,3.358-7.5,7.5s3.357,7.5,7.5,7.5c9.36,0,13.766,2.005,18.867,4.326c5.844,2.659,12.467,5.674,25.079,5.674    c12.613,0,19.236-3.014,25.08-5.674c5.102-2.322,9.507-4.326,18.867-4.326c9.359,0,13.765,2.005,18.866,4.326    c5.844,2.659,12.467,5.674,25.08,5.674c12.612,0,19.234-3.014,25.078-5.674c5.1-2.321,9.504-4.326,18.862-4.326    c9.36,0,13.766,2.005,18.867,4.326c5.844,2.659,12.467,5.674,25.079,5.674c12.613,0,19.236-3.014,25.08-5.674    c5.102-2.322,9.507-4.326,18.867-4.326c9.361,0,13.767,2.005,18.868,4.326c5.844,2.659,12.468,5.674,25.081,5.674    s19.236-3.014,25.08-5.674c5.102-2.322,9.507-4.326,18.867-4.326c9.363,0,13.77,2.005,18.871,4.327    c5.845,2.659,12.469,5.673,25.083,5.673s19.238-3.014,25.083-5.673c5.102-2.322,9.509-4.327,18.871-4.327    c4.143,0,7.5-3.358,7.5-7.5S451.121,406.885,446.979,406.885z"/>
		<path style="fill:#333333;" d="M115.813,138.089c31.843,0,57.748-25.906,57.748-57.748s-25.905-57.748-57.748-57.748    c-31.842,0-57.747,25.906-57.747,57.748S83.972,138.089,115.813,138.089z M115.813,37.594c23.571,0,42.748,19.177,42.748,42.748    s-19.177,42.748-42.748,42.748s-42.747-19.177-42.747-42.748S92.242,37.594,115.813,37.594z"/>
		<path style="fill:#333333;" d="M284.951,86.189h22.64c-0.903,2.456-1.396,5.109-1.396,7.874c0,12.613,10.262,22.874,22.874,22.874    h74.865c12.613,0,22.875-10.261,22.875-22.874s-10.262-22.874-22.875-22.874h-22.64c0.903-2.456,1.396-5.109,1.396-7.874    c0-12.613-10.262-22.874-22.874-22.874h-74.865c-12.613,0-22.875,10.261-22.875,22.874S272.338,86.189,284.951,86.189z     M284.951,55.441h74.865c4.342,0,7.874,3.532,7.874,7.874s-3.532,7.874-7.874,7.874c-4.143,0-7.5,3.358-7.5,7.5s3.357,7.5,7.5,7.5    h44.117c4.343,0,7.875,3.532,7.875,7.874s-3.532,7.874-7.875,7.874h-74.865c-4.342,0-7.874-3.532-7.874-7.874    s3.532-7.874,7.874-7.874c4.143,0,7.5-3.358,7.5-7.5s-3.357-7.5-7.5-7.5h-44.117c-4.343,0-7.875-3.532-7.875-7.874    S280.608,55.441,284.951,55.441z"/>
	</g>
</g>















</svg>
