<?xml version="1.0" encoding="iso-8859-1"?>
<!-- Generator: Adobe Illustrator 19.0.0, SVG Export Plug-In . SVG Version: 6.00 Build 0)  -->
<svg xmlns="http://www.w3.org/2000/svg" xmlns:xlink="http://www.w3.org/1999/xlink" version="1.1" id="Layer_1" x="0px" y="0px" viewBox="0 0 454.479 454.479" style="enable-background:new 0 0 454.479 454.479;" xml:space="preserve" width="512" height="512">
<g>
	<polygon style="fill:#FFD039;" points="367.972,278.738 349.822,296.868 331.692,278.738 331.682,278.728 338.402,272.008    361.242,272.008  "/>
	<polygon style="fill:#FFD039;" points="349.822,296.868 331.692,315.018 324.962,308.298 311.682,320.168 310.022,318.318    310.022,275.418 311.672,273.568 324.962,285.448 331.682,278.728 331.692,278.738  "/>
	<polygon style="fill:#FFD039;" points="391.352,273.688 391.352,320.048 389.792,321.798 374.682,308.298 367.962,315.008    349.822,296.868 367.972,278.738 374.682,285.448 389.792,271.938  "/>
	<path style="fill:#FFD039;" d="M361.242,321.728l30.78,34.43l-0.67,0.6v35.72h-30.5v-19.69c0-5.61-4.55-10.16-10.16-10.16   c-5.62,0-10.17,4.55-10.17,10.16v19.69h-30.5v-37.45l-0.77-0.69l29.15-32.61l-6.71-6.71l18.13-18.15l18.14,18.14L361.242,321.728z"/>
	<path style="fill:#FFD039;" d="M141.952,299.898l40.28,45.05l-0.88,0.79v46.74h-39.91v-27.31c0-6.49-5.26-11.75-11.75-11.75h-3.11   c-6.48,0-11.75,5.26-11.75,11.75v27.31h-39.91v-49l-1.01-0.9l38.15-42.68l-8.79-8.78l0.01-0.01l23.73-23.74l23.74,23.74   L141.952,299.898z"/>
	<polygon style="fill:#FFD039;" points="141.952,234.838 150.752,243.638 127.012,267.368 103.282,243.638 103.272,243.628    112.062,234.838  "/>
	<polygon style="fill:#FFD039;" points="74.922,299.508 74.922,235.768 75.332,235.308 94.472,252.418 103.272,243.628    103.282,243.638 127.012,267.368 103.282,291.108 103.272,291.118 94.472,282.318 75.062,299.668  "/>
	<polygon style="fill:#FFD039;" points="181.352,233.508 181.352,301.768 181.322,301.798 159.542,282.318 150.752,291.108    127.012,267.368 150.752,243.638 159.542,252.418 181.062,233.178  "/>
	<rect x="74.927" y="235.773" style="fill:#EAB932;" width="28.315" height="155.736"/>
	<rect x="310.927" y="265.479" style="fill:#EAB932;" width="22.914" height="126.03"/>
	<rect x="7.5" y="396.146" style="fill:#0FBC30;" width="439.478" height="25.499"/>
	<path style="fill:#808080;" d="M360.852,372.788v19.69h-20.33v-19.69c0-5.61,4.55-10.16,10.17-10.16   C356.302,362.628,360.852,367.178,360.852,372.788z"/>
	<polygon style="fill:#E6E6E6;" points="338.402,321.728 309.252,354.338 296.902,368.148 278.552,349.788 311.682,320.168    324.962,308.298 331.692,315.018  "/>
	<polygon style="fill:#E6E6E6;" points="367.962,315.008 374.682,308.298 389.792,321.798 421.102,349.788 402.742,368.148    392.022,356.158 361.242,321.728  "/>
	<polygon style="fill:#E6E6E6;" points="421.102,243.948 389.792,271.938 374.682,285.448 367.972,278.738 361.242,272.008    372.642,259.258 402.742,225.598  "/>
	<polygon style="fill:#E6E6E6;" points="327.562,259.878 338.402,272.008 331.682,278.728 324.962,285.448 311.672,273.568    278.552,243.948 296.902,225.598  "/>
	<polygon style="fill:#ED2E2E;" points="372.642,259.258 361.242,272.008 338.402,272.008 327.562,259.878 329.472,258.168    350.692,247.248 370.762,257.578  "/>
	<polygon style="fill:#E6E6E6;" points="157.472,217.478 196.262,174.098 220.272,198.118 181.062,233.178 159.542,252.418    150.752,243.638 141.952,234.838  "/>
	<polygon style="fill:#E6E6E6;" points="97.322,218.358 112.062,234.838 103.272,243.628 94.472,252.418 75.332,235.308    33.742,198.118 57.762,174.098  "/>
	<polygon style="fill:#E6E6E6;" points="112.062,299.898 73.912,342.578 57.762,360.638 33.742,336.618 75.062,299.668    94.472,282.318 103.272,291.118  "/>
	<polygon style="fill:#E6E6E6;" points="220.272,336.618 196.262,360.638 182.232,344.948 141.952,299.898 150.752,291.108    159.542,282.318 181.322,301.798  "/>
	<path style="fill:#808080;" d="M141.442,365.168v27.31h-26.61v-27.31c0-6.49,5.27-11.75,11.75-11.75h3.11   C136.182,353.418,141.442,358.678,141.442,365.168z"/>
	<polygon style="fill:#ED2E2E;" points="97.322,218.358 128.242,202.428 157.472,217.478 141.952,234.838 112.062,234.838  "/>
	<path style="fill:#FFD039;" d="M377.422,32.838c27.75,0,50.25,22.5,50.25,50.25s-22.5,50.24-50.25,50.24   c-10.66,0-20.54-3.31-28.67-8.98h1.17c8.49,0,15.37-6.88,15.37-15.38c0-4.24-1.72-8.09-4.5-10.87c-2.78-2.78-6.63-4.5-10.87-4.5   h-21.65c-0.72-3.39-1.1-6.9-1.1-10.51C327.172,55.338,349.672,32.838,377.422,32.838z"/>
	<path style="fill:#3B9DFF;" d="M360.792,98.098c2.78,2.78,4.5,6.63,4.5,10.87c0,8.5-6.88,15.38-15.37,15.38h-1.17h-87.57   c-4.24,0-8.09-1.72-10.87-4.5c-2.78-2.78-4.5-6.63-4.5-10.88c0-8.49,6.88-15.37,15.37-15.37h-22.25c-4.25,0-8.09-1.72-10.87-4.5   c-2.79-2.78-4.51-6.63-4.51-10.87c0-8.5,6.89-15.38,15.38-15.38h53c4.25,0,8.09,1.72,10.87,4.5c2.78,2.78,4.5,6.63,4.5,10.88   c0,8.49-6.88,15.37-15.37,15.37h36.34h21.65C354.162,93.598,358.012,95.318,360.792,98.098z"/>
	<g>
		<path style="fill:#333333;" d="M7.5,400.646h439.479c4.143,0,7.5-3.358,7.5-7.5s-3.357-7.5-7.5-7.5h-48.124v-10.423    c1.102,0.668,2.367,1.052,3.681,1.088c0.069,0.002,0.14,0.003,0.209,0.003c1.986,0,3.895-0.789,5.304-2.197l18.354-18.354    c1.457-1.458,2.251-3.452,2.193-5.513s-0.961-4.007-2.498-5.382l-27.242-24.357V274.57l27.242-24.357    c1.537-1.374,2.44-3.32,2.498-5.381s-0.736-4.055-2.193-5.513l-18.354-18.354c-1.459-1.458-3.461-2.253-5.513-2.194    c-2.062,0.058-4.008,0.961-5.382,2.498l-25.797,28.853l-17.232-8.876c-2.156-1.11-4.713-1.11-6.869,0l-18.416,9.486    l-26.343-29.463c-1.374-1.537-3.32-2.44-5.382-2.498c-2.058-0.06-4.055,0.736-5.513,2.194l-18.354,18.354    c-1.457,1.458-2.251,3.452-2.193,5.513s0.961,4.007,2.498,5.381l28.973,25.905v42.848l-28.973,25.905    c-1.537,1.375-2.44,3.321-2.498,5.382s0.736,4.055,2.193,5.513l18.354,18.354c1.409,1.409,3.317,2.197,5.304,2.197    c0.069,0,0.14-0.001,0.209-0.003c2.062-0.058,4.008-0.961,5.382-2.498l0.029-0.033v11.865H188.854v-21.37l1.814,2.029    c1.374,1.537,3.32,2.44,5.382,2.498c0.069,0.002,0.14,0.003,0.209,0.003c1.986,0,3.895-0.789,5.304-2.197l24.018-24.018    c1.457-1.458,2.251-3.452,2.193-5.513s-0.961-4.007-2.498-5.382l-36.422-32.565v-62.189l36.422-32.565    c1.537-1.375,2.44-3.321,2.498-5.382s-0.736-4.055-2.193-5.513l-24.018-24.018c-1.459-1.458-3.469-2.261-5.513-2.194    c-2.062,0.058-4.008,0.961-5.382,2.498l-34.952,39.092l-24.141-12.435c-2.156-1.11-4.713-1.11-6.869,0l-25.692,13.233    l-35.665-39.891c-1.374-1.537-3.32-2.44-5.382-2.498c-2.063-0.068-4.055,0.736-5.513,2.194l-24.018,24.018    c-1.457,1.458-2.251,3.452-2.193,5.513s0.961,4.007,2.498,5.382l38.686,34.589v58.142l-38.686,34.589    c-1.537,1.375-2.44,3.321-2.498,5.382s0.736,4.055,2.193,5.513l24.018,24.018c1.409,1.409,3.317,2.197,5.304,2.197    c0.069,0,0.14-0.001,0.209-0.003c2.062-0.058,4.008-0.961,5.382-2.498l4.078-4.561v23.902H7.5c-4.143,0-7.5,3.358-7.5,7.5    S3.357,400.646,7.5,400.646z M122.337,385.646v-19.811c0-2.343,1.906-4.25,4.25-4.25h3.106c2.344,0,4.25,1.907,4.25,4.25v19.811    H122.337z M348.023,385.646v-12.184c0-1.47,1.196-2.666,2.666-2.666c1.471,0,2.667,1.196,2.667,2.666v12.184H348.023z     M403.049,357.903l-31.483-35.212l3.408-3.408l35.213,31.483L403.049,357.903z M383.854,307.101l-4.17-3.728    c-2.966-2.652-7.488-2.527-10.302,0.288l-1.416,1.416l-7.531-7.531l7.534-7.535l1.412,1.412c1.461,1.46,3.381,2.197,5.305,2.197    c1.783,0,3.571-0.633,4.998-1.909l4.17-3.729V307.101z M356.587,280.181l-6.758,6.758l-6.758-6.758H356.587z M403.049,237.18    l7.138,7.137l-35.213,31.484l-3.408-3.408L403.049,237.18z M350.689,256.351l10.338,5.324l-3.135,3.506h-16.135l-2.589-2.896    L350.689,256.351z M296.601,237.18l31.483,35.213l-3.408,3.408l-35.213-31.484L296.601,237.18z M317.525,289.529l2.439,2.181    c1.427,1.276,3.214,1.909,4.998,1.909c1.924,0,3.844-0.736,5.305-2.197l1.416-1.416l7.539,7.539l-7.535,7.535l-1.421-1.421    c-2.813-2.814-7.335-2.939-10.302-0.288l-2.439,2.181V289.529z M296.601,357.903l-7.138-7.137l35.213-31.483l3.408,3.408    L296.601,357.903z M317.525,357.004l26.468-29.603c2.652-2.967,2.526-7.489-0.288-10.302l-1.411-1.411l7.535-7.535l7.531,7.531    l-1.415,1.415c-2.814,2.813-2.94,7.335-0.288,10.302l28.198,31.539v26.707h-15.498v-12.184c0-9.741-7.926-17.666-17.667-17.666    s-17.666,7.925-17.666,17.666v12.184h-15.498V357.004z M196.563,350.395l-44.29-49.536l7.556-7.555l49.536,44.29L196.563,350.395z     M173.854,285.721l-9.313-8.327c-2.966-2.652-7.487-2.527-10.303,0.288l-3.489,3.489l-13.128-13.128l13.134-13.134l3.484,3.484    c1.46,1.46,3.38,2.197,5.304,2.197c1.783,0,3.571-0.633,4.998-1.909l9.313-8.327V285.721z M115.838,242.335h22.341l1.968,1.968    l-13.133,13.133l-13.139-13.139L115.838,242.335z M196.563,185.681l12.802,12.801l-49.536,44.29l-7.556-7.555L196.563,185.681z     M128.141,211.532l17.246,8.884l-6.187,6.92h-24.384l-5.473-6.122L128.141,211.532z M57.453,185.681l44.289,49.537l-7.555,7.555    l-49.536-44.29L57.453,185.681z M82.427,252.379l7.05,6.303c1.427,1.276,3.214,1.909,4.998,1.909c1.924,0,3.844-0.736,5.305-2.197    l3.489-3.489l13.139,13.139l-13.133,13.133l-3.495-3.495c-2.815-2.814-7.337-2.94-10.303-0.288l-7.05,6.303V252.379z     M57.453,350.395l-12.802-12.801l49.536-44.29l7.555,7.555L57.453,350.395z M82.427,344.967l35.225-39.397    c2.652-2.967,2.526-7.488-0.287-10.302l-3.484-3.484l13.133-13.133l13.127,13.128l-3.49,3.49    c-2.813,2.814-2.939,7.335-0.287,10.302l37.489,41.93v38.147h-24.91v-19.811c0-10.614-8.636-19.25-19.25-19.25h-3.106    c-10.614,0-19.25,8.636-19.25,19.25v19.811h-24.91V344.967z"/>
		<path style="fill:#333333;" d="M446.979,414.145H7.5c-4.143,0-7.5,3.358-7.5,7.5s3.357,7.5,7.5,7.5h439.479    c4.143,0,7.5-3.358,7.5-7.5S451.121,414.145,446.979,414.145z"/>
		<path style="fill:#333333;" d="M238.929,101.099h0.776c-0.903,2.456-1.396,5.109-1.396,7.874    c0,12.613,10.262,22.875,22.874,22.875h85.309c9.233,5.878,19.872,8.977,30.925,8.977c31.844,0,57.75-25.902,57.75-57.74    c0-31.843-25.906-57.75-57.75-57.75s-57.75,25.907-57.75,57.75c0,1.005,0.027,2.011,0.079,3.015h-6.337    c0.903-2.457,1.396-5.108,1.396-7.875c0-12.613-10.262-22.874-22.875-22.874h-53.002c-12.613,0-22.875,10.261-22.875,22.874    C216.054,90.837,226.315,101.099,238.929,101.099z M334.667,83.083c0-23.572,19.178-42.75,42.75-42.75s42.75,19.178,42.75,42.75    c0,23.567-19.178,42.74-42.75,42.74c-3.648,0-7.233-0.461-10.692-1.35c3.766-4.079,6.072-9.525,6.072-15.501    c0-12.613-10.262-22.874-22.874-22.874h-15.137C334.715,85.095,334.667,84.09,334.667,83.083z M238.929,70.35h53.002    c4.343,0,7.875,3.532,7.875,7.874s-3.532,7.875-7.875,7.875c-4.143,0-7.5,3.358-7.5,7.5s3.357,7.5,7.5,7.5h57.992    c4.342,0,7.874,3.532,7.874,7.874s-3.532,7.875-7.874,7.875h-0.994c-0.062-0.001-0.123,0-0.185,0h-87.561    c-4.342,0-7.874-3.533-7.874-7.875s3.532-7.874,7.874-7.874c4.143,0,7.5-3.358,7.5-7.5s-3.357-7.5-7.5-7.5h-22.254    c-4.343,0-7.875-3.533-7.875-7.875S234.586,70.35,238.929,70.35z"/>
	</g>
</g>















</svg>
