<?xml version="1.0" encoding="iso-8859-1"?>
<!-- Generator: Adobe Illustrator 19.0.0, SVG Export Plug-In . SVG Version: 6.00 Build 0)  -->
<svg xmlns="http://www.w3.org/2000/svg" xmlns:xlink="http://www.w3.org/1999/xlink" version="1.1" id="Layer_1" x="0px" y="0px" viewBox="0 0 454.478 454.478" style="enable-background:new 0 0 454.478 454.478;" xml:space="preserve" width="512" height="512">
<g>
	<rect x="7.5" y="367.413" style="fill:#0FBC30;" width="439.478" height="25.499"/>
	<path style="fill:#FFD039;" d="M347.282,61.568c27.75,0,50.25,22.49,50.25,50.25c0,27.75-22.5,50.24-50.25,50.24   s-50.24-22.49-50.24-50.24C297.042,84.058,319.532,61.568,347.282,61.568z"/>
	<polygon style="fill:#999999;" points="163.022,262.428 150.282,289.908 150.272,289.918 135.042,278.918 90.052,364.408    28.102,364.408 28.102,361.548 93.302,220.988 115.552,232.558 141.122,215.208  "/>
	<polygon style="fill:#999999;" points="430.992,361.548 430.992,364.408 366.032,364.408 335.242,305.918 325.502,312.948    309.042,277.478 322.032,258.958 339.042,274.548 357.782,257.148  "/>
	<polygon style="fill:#B3B3B3;" points="325.502,312.948 335.242,305.918 366.032,364.408 90.052,364.408 135.042,278.918    150.272,289.918 150.282,289.908 163.022,262.428 202.042,178.328 202.542,178.558 211.542,208.558 243.042,181.558    275.812,205.828 309.042,277.478  "/>
	<polygon style="fill:#F2F2F2;" points="340.542,232.558 357.782,257.148 339.042,274.548 322.032,258.958  "/>
	<polygon style="fill:#F2F2F2;" points="141.122,215.208 115.552,232.558 93.302,220.988 118.552,166.558  "/>
	<polygon style="fill:#F2F2F2;" points="232.542,112.558 275.812,205.828 243.042,181.558 211.542,208.558 202.542,178.558    202.042,178.328  "/>
	<polygon style="fill:#CCCCCC;" points="243.042,181.558 244.885,229.825 267.042,285.058 276.042,276.058 304.882,327.32    325.502,312.948 274.883,198.326  "/>
	<g>
		<path style="fill:#333333;" d="M7.5,371.913h439.478c4.142,0,7.5-3.358,7.5-7.5s-3.358-7.5-7.5-7.5h-10.083l-90.216-128.656    c-1.404-2.002-3.695-3.194-6.141-3.194c-2.445,0-4.737,1.192-6.141,3.194l-24.027,34.263l-71.029-153.114    c-1.229-2.649-3.884-4.344-6.804-4.344c-2.92,0-5.575,1.695-6.804,4.344l-62.713,135.208l-37.669-81.209    c-1.229-2.649-3.883-4.344-6.804-4.344c-2.92,0-5.575,1.695-6.804,4.344L21.983,356.913H7.5c-4.142,0-7.5,3.358-7.5,7.5    S3.358,371.913,7.5,371.913z M157.654,304.496c3.358,2.425,8.045,1.668,10.471-1.689c2.425-3.358,1.669-8.046-1.689-10.471    l-6.752-4.877l41.106-88.624l3.565,11.882c0.729,2.43,2.638,4.327,5.072,5.042c0.695,0.204,1.405,0.303,2.111,0.303    c1.768,0,3.504-0.625,4.881-1.806l26.96-23.109l26.425,19.571l46.287,99.779l-3.709,2.679c-3.358,2.425-4.114,7.113-1.689,10.471    c2.425,3.358,7.112,4.114,10.471,1.689l11.469-8.283l20.978,39.858H102.471l35.188-66.857L157.654,304.496z M340.539,245.626    l7.348,10.478l-8.88,8.245l-7.059-6.471L340.539,245.626z M323.261,270.264l10.71,9.818c1.434,1.314,3.251,1.971,5.067,1.971    c1.833,0,3.665-0.668,5.103-2.004l12.438-11.548l61.996,88.412h-48.012l-28.679-54.49c-1.012-1.923-2.808-3.312-4.924-3.809    c-2.116-0.497-4.342-0.051-6.104,1.222l-2.378,1.717l-10.813-23.309L323.261,270.264z M232.539,130.386l24.075,51.898    l-9.112-6.748c-2.812-2.082-6.689-1.944-9.345,0.333l-22.748,19.498l-5.11-17.033L232.539,130.386z M118.549,184.386    l13.081,28.201l-16.591,11.257l-11.919-6.198L118.549,184.386z M96.802,231.268l15.287,7.949c1.088,0.566,2.275,0.846,3.459,0.846    c1.476,0,2.946-0.435,4.211-1.294l18.266-12.394l16.729,36.065l-7.456,16.075l-7.861-5.677c-1.762-1.272-3.99-1.718-6.104-1.222    c-2.116,0.496-3.912,1.886-4.924,3.809l-42.889,81.489H38.519L96.802,231.268z"/>
		<path style="fill:#333333;" d="M446.978,385.412H7.5c-4.142,0-7.5,3.358-7.5,7.5s3.358,7.5,7.5,7.5h439.478    c4.142,0,7.5-3.358,7.5-7.5S451.12,385.412,446.978,385.412z"/>
		<path style="fill:#333333;" d="M259.941,287.475c0.835,2.452,2.877,4.299,5.4,4.885c2.523,0.587,5.17-0.17,7.001-2.002    l2.388-2.388l5.48,8.611c1.43,2.246,3.856,3.474,6.335,3.474c1.377,0,2.771-0.379,4.019-1.174    c3.495-2.224,4.525-6.859,2.301-10.354l-10.5-16.499c-1.222-1.919-3.248-3.18-5.509-3.429c-2.263-0.249-4.513,0.543-6.122,2.152    l-0.483,0.483l-18.613-54.597c-1.336-3.92-5.598-6.015-9.519-4.679c-3.921,1.337-6.016,5.598-4.679,9.519L259.941,287.475z"/>
		<path style="fill:#333333;" d="M207.797,328.516c0.253,0.025,0.505,0.038,0.755,0.038c3.806,0,7.067-2.886,7.454-6.754l6-59.997    c0.412-4.122-2.595-7.797-6.717-8.209c-4.125-0.415-7.797,2.595-8.209,6.717l-6,59.997    C200.668,324.429,203.675,328.104,207.797,328.516z"/>
		<path style="fill:#333333;" d="M85.543,316.556c2.751,0,5.4-1.52,6.714-4.148l19.499-38.998c1.853-3.705,0.351-8.21-3.354-10.062    c-3.703-1.851-8.209-0.351-10.062,3.354L78.841,305.7c-1.853,3.705-0.351,8.21,3.354,10.062    C83.271,316.301,84.416,316.556,85.543,316.556z"/>
		<path style="fill:#333333;" d="M347.286,169.561c31.842,0,57.748-25.905,57.748-57.747s-25.905-57.748-57.748-57.748    s-57.748,25.906-57.748,57.748S315.444,169.561,347.286,169.561z M347.286,69.066c23.571,0,42.748,19.177,42.748,42.748    s-19.176,42.747-42.748,42.747s-42.748-19.176-42.748-42.747S323.715,69.066,347.286,69.066z"/>
	</g>
</g>















</svg>
