<?xml version="1.0" encoding="iso-8859-1"?>
<!-- Generator: Adobe Illustrator 19.0.0, SVG Export Plug-In . SVG Version: 6.00 Build 0)  -->
<svg xmlns="http://www.w3.org/2000/svg" xmlns:xlink="http://www.w3.org/1999/xlink" version="1.1" id="Layer_1" x="0px" y="0px" viewBox="0 0 454.478 454.478" style="enable-background:new 0 0 454.478 454.478;" xml:space="preserve" width="512" height="512">
<g>
	<rect x="7.5" y="402.399" style="fill:#B3B3B3;" width="439.478" height="25.499"/>
	<polygon style="fill:#ED2E2E;" points="186.902,274.148 211.112,274.148 233.002,274.148 233.002,275.198 233.002,357.718    191.912,357.718 191.912,398.838 165.002,398.838 165.002,275.198 165.002,274.148  "/>
	<rect x="201.832" y="263.148" style="fill:#D82525;" width="30.41" height="134.36"/>
	<polygon style="fill:#ED2E2E;" points="110.002,275.198 110.002,398.838 42.002,398.838 42.002,275.198 42.002,274.148    110.002,274.148  "/>
	<rect x="76.832" y="263.148" style="fill:#D82525;" width="30.41" height="134.36"/>
	<polygon style="fill:#ED2E2E;" points="446.982,398.838 354.832,398.838 354.832,357.718 344.832,357.718 344.832,328.148    344.832,263.148 365.502,263.148 385.872,263.148 406.242,263.148 426.612,263.148 446.982,263.148  "/>
	<rect x="344.832" y="263.148" style="fill:#D82525;" width="30.41" height="134.36"/>
	<polygon style="fill:#D82525;" points="354.832,357.718 354.832,398.838 299.502,398.838 299.502,359.148 299.502,357.718    344.832,357.718  "/>
	<polygon style="fill:#D82525;" points="344.832,328.148 344.832,357.718 299.502,357.718 259.002,357.718 259.002,328.148    260.422,328.148 343.422,328.148  "/>
	<polygon style="fill:#ED2E2E;" points="344.832,263.148 344.832,328.148 343.422,328.148 260.422,328.148 259.002,328.148    259.002,241.148 260.422,241.148 279.502,241.148 301.502,241.148 323.502,241.148 343.422,241.148 344.832,241.148  "/>
	<polygon style="fill:#ED2E2E;" points="323.502,241.148 301.502,241.148 279.502,241.148 260.422,241.148 259.002,241.148    259.002,202.248 269.342,202.248 334.502,202.248 344.832,202.248 344.832,241.148 343.422,241.148  "/>
	<path style="fill:#ED2E2E;" d="M334.502,135.128v67.12h-65.16v-67.12h8h24.58h24.58H334.502z M317.502,169.148   c0-8.29-6.71-15-15-15c-8.28,0-15,6.71-15,15c0,8.28,6.72,15,15,15C310.792,184.148,317.502,177.428,317.502,169.148z"/>
	<polygon style="fill:#ED2E2E;" points="301.922,135.128 277.342,135.128 277.342,97.148 283.342,97.148 320.502,97.148    326.502,97.148 326.502,135.128  "/>
	<polygon style="fill:#ED2E2E;" points="301.922,50.028 320.502,97.148 283.342,97.148  "/>
	<path style="fill:#CCCCCC;" d="M302.502,154.148c8.29,0,15,6.71,15,15c0,8.28-6.71,15-15,15c-8.28,0-15-6.72-15-15   C287.502,160.858,294.222,154.148,302.502,154.148z"/>
	<polygon style="fill:#ED2E2E;" points="299.502,359.148 299.502,398.838 191.912,398.838 191.912,357.718 233.002,357.718    259.002,357.718 299.502,357.718  "/>
	<path style="fill:#3B9DFF;" d="M239.002,259.648c0,5.7-2.2,11.03-6,15.55v-1.05h-21.89c1.14-4.29,1.79-9.24,1.79-14.5   c0-32.5-9.03-33.5-13.9-50.5C213.002,226.148,239.002,227.148,239.002,259.648z"/>
	<path style="fill:#F2F2F2;" d="M212.902,259.648c0,5.26-0.65,10.21-1.79,14.5h-24.21c-1.14-4.29-1.8-9.24-1.8-14.5   c0-32.5,9.04-33.5,13.9-50.5C203.872,226.148,212.902,227.148,212.902,259.648z"/>
	<path style="fill:#3B9DFF;" d="M199.002,209.148c-4.86,17-13.9,18-13.9,50.5c0,5.26,0.66,10.21,1.8,14.5h-21.9v1.05   c-3.8-4.52-6-9.85-6-15.55c0-17.77,7.78-26.13,17.11-32.82C183.852,221.268,192.662,216.848,199.002,209.148z"/>
	<path style="fill:#D82525;" d="M176.002,226.148l0.11,0.68c-9.33,6.69-17.11,15.05-17.11,32.82c0,5.7,2.2,11.03,6,15.55v123.64h-55   v-123.64c3.8-4.52,6-9.85,6-15.55c0-6.36-1-11.52-2.71-15.82c-3.19-8.07-8.89-13.14-15.21-17.58l0.92-0.1v-43h6.62h63.77h6.61   V226.148z"/>
	<polygon style="fill:#3B9DFF;" points="166.392,161.318 169.392,183.148 105.622,183.148 108.032,165.608 108.612,161.318    108.622,161.318 111.002,161.648 164.002,161.648  "/>
	<polygon style="fill:#0FBC30;" points="163.482,140.148 166.392,161.318 164.002,161.648 111.002,161.648 108.622,161.318    111.522,140.148 119.662,140.148 155.342,140.148  "/>
	<path style="fill:#ED2E2E;" d="M140.842,76.778l14.5,63.37h-35.68l10.29-44.97l4.21-18.4c1.07,0.24,2.19,0.37,3.34,0.37   C138.652,77.148,139.772,77.018,140.842,76.778z"/>
	<path style="fill:#ED2E2E;" d="M137.502,47.148c8.29,0,15,6.71,15,15c0,7.13-4.98,13.11-11.66,14.62v0.01   c-1.07,0.24-2.19,0.37-3.34,0.37c-1.15,0-2.27-0.13-3.34-0.37v-0.01c-6.67-1.51-11.66-7.49-11.66-14.62   C122.502,53.858,129.222,47.148,137.502,47.148z"/>
	<path style="fill:#FFD039;" d="M129.952,95.178l-10.29,44.97h-8.14l-2.9,21.17h-0.01l-0.58,4.29c-6.55,3.13-13.89,4.88-21.64,4.88   c-27.76,0-50.25-22.49-50.25-50.24c0-27.76,22.49-50.25,50.25-50.25C105.012,69.998,121.272,80.128,129.952,95.178z"/>
	<path style="fill:#FFD039;" d="M116.002,259.648c0,5.7-2.2,11.03-6,15.55v-1.05c-40.5-5-70.5-29-70.5-29l-1.14-0.41   c3.25-8.95,9.49-14.32,16.37-19.05l2.77,0.46c0,0,14,16,55,18l0.79-0.32C115.002,248.128,116.002,253.288,116.002,259.648z"/>
	<path style="fill:#0FBC30;" d="M113.292,243.828l-0.79,0.32c-41-2-55-18-55-18l-2.77-0.46c7.32-5.04,15.36-9.37,21.27-16.54   c6.12,7.44,14.55,11.81,22.08,17.1C104.402,230.688,110.102,235.758,113.292,243.828z"/>
	<path style="fill:#0FBC30;" d="M110.002,274.148h-68v1.05c-3.8-4.52-6-9.85-6-15.55c0-5.92,0.86-10.8,2.36-14.91l1.14,0.41   C39.502,245.148,69.502,269.148,110.002,274.148z"/>
	<g>
		<path style="fill:#333333;" d="M446.978,419.832H7.5c-4.142,0-7.5,3.358-7.5,7.5s3.358,7.5,7.5,7.5h439.478    c4.143,0,7.5-3.358,7.5-7.5S451.12,419.832,446.978,419.832z"/>
		<path style="fill:#333333;" d="M76.004,291.646c-4.142,0-7.5,3.358-7.5,7.5v14c0,4.142,3.358,7.5,7.5,7.5s7.5-3.358,7.5-7.5v-14    C83.504,295.003,80.146,291.646,76.004,291.646z"/>
		<path style="fill:#333333;" d="M137.504,231.646c4.142,0,7.5-3.358,7.5-7.5v-14c0-4.142-3.358-7.5-7.5-7.5s-7.5,3.358-7.5,7.5v14    C130.004,228.288,133.362,231.646,137.504,231.646z"/>
		<path style="fill:#333333;" d="M137.504,276.646c4.142,0,7.5-3.358,7.5-7.5v-14c0-4.142-3.358-7.5-7.5-7.5s-7.5,3.358-7.5,7.5v14    C130.004,273.288,133.362,276.646,137.504,276.646z"/>
		<path style="fill:#333333;" d="M199.004,291.646c-4.142,0-7.5,3.358-7.5,7.5v14c0,4.142,3.358,7.5,7.5,7.5s7.5-3.358,7.5-7.5v-14    C206.504,295.003,203.146,291.646,199.004,291.646z"/>
		<path style="fill:#333333;" d="M302.504,146.646c-12.406,0-22.5,10.093-22.5,22.5s10.094,22.5,22.5,22.5s22.5-10.093,22.5-22.5    S314.91,146.646,302.504,146.646z M302.504,176.646c-4.136,0-7.5-3.364-7.5-7.5s3.364-7.5,7.5-7.5s7.5,3.364,7.5,7.5    S306.64,176.646,302.504,176.646z"/>
		<path style="fill:#333333;" d="M454.478,263.146v-16c0-4.142-3.357-7.5-7.5-7.5s-7.5,3.358-7.5,7.5v8.5h-5.368v-8.5    c0-4.142-3.357-7.5-7.5-7.5s-7.5,3.358-7.5,7.5v8.5h-5.368v-8.5c0-4.142-3.357-7.5-7.5-7.5s-7.5,3.358-7.5,7.5v8.5h-5.368v-8.5    c0-4.142-3.357-7.5-7.5-7.5s-7.5,3.358-7.5,7.5v8.5h-5.369v-8.5c0-4.142-3.357-7.5-7.5-7.5s-7.5,3.358-7.5,7.5v8.5h-5.668v-53.398    c0-4.142-3.357-7.5-7.5-7.5h-2.832v-59.622c0-4.142-3.357-7.5-7.5-7.5h-0.5v-30.48c0-4.142-3.357-7.5-7.5-7.5h-0.895    l-16.185-41.046V30.025c0-4.142-3.357-7.5-7.5-7.5s-7.5,3.358-7.5,7.5v18.574l-16.185,41.046h-0.895c-4.143,0-7.5,3.358-7.5,7.5    v30.48h-0.5c-4.143,0-7.5,3.358-7.5,7.5v59.622h-2.84c-4.143,0-7.5,3.358-7.5,7.5V350.22h-11v-72.465    c3.934-5.503,6-11.711,6-18.109c0-25.847-14.974-35.626-27.004-43.483c-4.787-3.126-9.341-6.109-12.995-9.885v-13.132    c0-4.142-3.358-7.5-7.5-7.5s-7.5,3.358-7.5,7.5v13.132c-2.352,2.43-5.08,4.531-8,6.552v-29.684c0-4.142-3.358-7.5-7.5-7.5h-0.076    l-5.015-36.52c-0.51-3.713-3.682-6.48-7.43-6.48h-2.162l-11.783-51.503c6.284-3.995,10.465-11.015,10.465-18.997    c0-9.778-6.271-18.114-15-21.21v-13.79c0-4.142-3.358-7.5-7.5-7.5s-7.5,3.358-7.5,7.5v13.79c-8.729,3.096-15,11.432-15,21.21    c0,1.049,0.078,2.08,0.218,3.091c-8.641-4.981-18.559-7.741-28.828-7.741c-31.843,0-57.75,25.907-57.75,57.75    c0,31.838,25.907,57.74,57.75,57.74c4.525,0,8.954-0.521,13.261-1.532l-0.576,4.192h-0.075c-4.142,0-7.5,3.358-7.5,7.5v29.684    c-2.92-2.021-5.648-4.122-8-6.552v-13.132c0-4.142-3.358-7.5-7.5-7.5s-7.5,3.358-7.5,7.5v13.132    c-3.655,3.776-8.208,6.758-12.995,9.885c-12.032,7.857-27.005,17.636-27.005,43.483c0,6.398,2.066,12.606,6,18.109v113.579H7.5    c-4.142,0-7.5,3.358-7.5,7.5s3.358,7.5,7.5,7.5h439.478c4.143,0,7.5-3.358,7.5-7.5s-3.357-7.5-7.5-7.5h-84.642V357.72    c0-4.142-3.357-7.5-7.5-7.5h-2.5v-79.574h94.642C451.12,270.646,454.478,267.288,454.478,263.146z M337.336,209.747v23.898h-6.332    v-4.5c0-4.142-3.357-7.5-7.5-7.5s-7.5,3.358-7.5,7.5v4.5h-7v-4.5c0-4.142-3.357-7.5-7.5-7.5s-7.5,3.358-7.5,7.5v4.5h-7v-4.5    c0-4.142-3.357-7.5-7.5-7.5s-7.5,3.358-7.5,7.5v4.5h-5.5v-23.898H337.336z M337.336,248.646v72h-70.832v-72H337.336z     M301.924,70.471l7.561,19.174h-15.121L301.924,70.471z M284.844,104.646h34.16v22.98h-9.58v-4.5c0-4.142-3.357-7.5-7.5-7.5    s-7.5,3.358-7.5,7.5v4.5h-9.58V104.646z M276.844,142.625h50.16v52.122h-50.16V142.625z M45.261,266.646    c-1.153-2.261-1.757-4.628-1.757-7c0-0.865,0.026-1.693,0.066-2.502c4.27,2.748,9.976,6.118,16.855,9.502H45.261z     M168.504,190.646v32.56c-9.002,7.247-17,17.551-17,36.44c0,6.398,2.066,12.606,6,18.109v20.891h-40v-20.891    c3.934-5.504,6-11.711,6-18.109c0-18.89-7.998-29.193-17-36.44v-32.56H168.504z M193.055,266.646    c-0.298-2.254-0.451-4.608-0.451-7c0-18.337,2.877-25.197,6.401-31.935c3.523,6.737,6.4,13.599,6.4,31.935    c0,2.392-0.153,4.746-0.451,7H193.055z M177.958,266.646h-9.697c-1.153-2.261-1.757-4.628-1.757-7    c0-14.524,5.691-20.864,14.198-26.894c-1.839,6.276-3.099,14.541-3.099,26.894C177.604,262.006,177.724,264.351,177.958,266.646z     M117.504,313.646h40v77.688h-40V313.646z M199.415,391.333V365.22h92.589v26.114H199.415z M191.915,350.22    c-4.142,0-7.5,3.358-7.5,7.5v33.614h-11.91V281.646h53v68.574H191.915z M231.504,259.646c0,2.372-0.603,4.739-1.756,7h-9.698    c0.234-2.295,0.355-4.64,0.355-7c0-12.354-1.26-20.618-3.099-26.894C225.813,238.781,231.504,245.122,231.504,259.646z     M118.065,147.646h38.878l0.893,6.5h-40.664L118.065,147.646z M129.074,132.646l8.43-36.85l8.43,36.85H129.074z M137.504,54.646    c4.136,0,7.5,3.364,7.5,7.5s-3.364,7.5-7.5,7.5s-7.5-3.364-7.5-7.5S133.369,54.646,137.504,54.646z M86.394,157.986    c-23.572,0-42.75-19.173-42.75-42.74c0-23.572,19.178-42.75,42.75-42.75c14.817,0,28.635,7.777,36.396,20.355l-9.104,39.794    h-2.162c-3.748,0-6.92,2.767-7.43,6.48l-2.19,15.953C96.982,157,91.782,157.986,86.394,157.986z M115.113,169.146h44.783    l0.893,6.5H114.22L115.113,169.146z M97.359,235.042c-14.23-2.349-23.351-6.523-28.582-9.691c2.458-1.69,4.895-3.486,7.227-5.521    c3.933,3.431,8.16,6.191,12.293,8.891C91.619,230.89,94.678,232.889,97.359,235.042z M55.479,234.391    c2.345,1.864,5.883,4.292,10.836,6.732c11.353,5.594,25.277,9.027,41.428,10.235c0.495,2.44,0.762,5.172,0.762,8.287    c0,2.196-0.525,4.388-1.517,6.497c-27.948-4.418-50.344-18.155-58.969-24.085C49.984,239.094,52.52,236.672,55.479,234.391z     M49.504,281.646h53v109.688h-53V281.646z M307.004,391.333V365.22h40.332v26.114H307.004z M266.504,350.22v-14.574h70.832v14.574    H266.504z"/>
		<path style="fill:#333333;" d="M393.223,300.146c0-4.142-3.357-7.5-7.5-7.5h-8.438c-4.143,0-7.5,3.358-7.5,7.5s3.357,7.5,7.5,7.5    h8.438C389.865,307.646,393.223,304.288,393.223,300.146z"/>
		<path style="fill:#333333;" d="M420.504,312.646h-8.438c-4.143,0-7.5,3.358-7.5,7.5s3.357,7.5,7.5,7.5h8.438    c4.143,0,7.5-3.358,7.5-7.5S424.646,312.646,420.504,312.646z"/>
		<path style="fill:#333333;" d="M384.504,362.646h8.438c4.143,0,7.5-3.358,7.5-7.5s-3.357-7.5-7.5-7.5h-8.438    c-4.143,0-7.5,3.358-7.5,7.5S380.361,362.646,384.504,362.646z"/>
	</g>
</g>















</svg>
