<?xml version="1.0" encoding="iso-8859-1"?>
<!-- Generator: Adobe Illustrator 19.0.0, SVG Export Plug-In . SVG Version: 6.00 Build 0)  -->
<svg xmlns="http://www.w3.org/2000/svg" xmlns:xlink="http://www.w3.org/1999/xlink" version="1.1" id="Layer_1" x="0px" y="0px" viewBox="0 0 454.479 454.479" style="enable-background:new 0 0 454.479 454.479;" xml:space="preserve" width="512" height="512">
<g>
	<rect x="7.5" y="379.7" style="fill:#0FBC30;" width="439.478" height="25.499"/>
	<path style="fill:#CCCCCC;" d="M410.23,376.7c0,0-124.494-50.997-161.992-106.495H206.24   C168.742,325.702,44.248,376.7,44.248,376.7"/>
	<path style="fill:#FFD039;" d="M323.812,149.43c24.94-2.95,44.27-24.17,44.27-49.9c0-27.75-22.49-50.25-50.24-50.25   c-24.34,0-44.65,17.31-49.26,40.3"/>
	<rect x="206.24" y="183.906" style="fill:#ED2E2E;" width="41.998" height="86.299"/>
	<path style="fill:#CCCCCC;" d="M261.239,184.96c0,8.836,7.163,16,16,16c8.626,0,15.638-6.831,15.969-15.375   c3.191,1.521,6.761,2.375,10.531,2.375c13.531,0,24.5-10.969,24.5-24.5c0-6.368-2.431-12.168-6.414-16.525   c3.313-2.932,5.414-7.203,5.414-11.975c0-8.836-7.163-16-16-16c-0.522,0-1.038,0.029-1.547,0.078   c0.998-2.67,1.547-5.56,1.547-8.578c0-13.531-10.969-24.5-24.5-24.5c-6.42,0-12.26,2.472-16.629,6.513   c-3.823-8.551-12.398-14.513-22.371-14.513c-8.579,0-16.124,4.413-20.5,11.089c-4.376-6.676-11.921-11.089-20.5-11.089   c-9.973,0-18.548,5.962-22.371,14.513c-4.369-4.041-10.209-6.513-16.629-6.513c-13.531,0-24.5,10.969-24.5,24.5   c0,3.019,0.549,5.908,1.547,8.578c-0.51-0.049-1.025-0.078-1.547-0.078c-8.837,0-16,7.164-16,16c0,4.772,2.1,9.043,5.414,11.975   c-3.983,4.357-6.414,10.157-6.414,16.525c0,13.531,10.969,24.5,24.5,24.5c3.771,0,7.341-0.854,10.531-2.375   c0.331,8.544,7.343,15.375,15.969,15.375c8.837,0,16-7.164,16-16l13.001,21h41.998L261.239,184.96z"/>
	<g>
		<path style="fill:#333333;" d="M7.5,384.2h439.479c4.143,0,7.5-3.358,7.5-7.5s-3.357-7.5-7.5-7.5h-35.244    c-13.35-5.628-123.489-53.181-157.281-103.194c-1.396-2.064-3.724-3.301-6.215-3.301H206.24c-2.491,0-4.819,1.237-6.215,3.301    c-33.77,49.98-143.929,97.562-157.282,103.194H7.5c-4.143,0-7.5,3.358-7.5,7.5S3.357,384.2,7.5,384.2z M114.796,350.836    c46.359-25.486,78.4-50.069,95.331-73.131h34.225c16.931,23.063,48.972,47.646,95.331,73.131    c12.886,7.084,25.223,13.298,35.762,18.364H79.033C89.572,364.134,101.909,357.92,114.796,350.836z"/>
		<path style="fill:#333333;" d="M446.979,397.698H7.5c-4.143,0-7.5,3.358-7.5,7.5s3.357,7.5,7.5,7.5h439.479    c4.143,0,7.5-3.358,7.5-7.5S451.121,397.698,446.979,397.698z"/>
		<path style="fill:#333333;" d="M210.172,300.575c-3.527-2.171-8.146-1.074-10.318,2.452c-0.155,0.251-15.726,25.348-35.646,43.372    c-3.071,2.779-3.309,7.522-0.529,10.593c1.48,1.637,3.519,2.468,5.563,2.468c1.794,0,3.595-0.64,5.03-1.938    c21.546-19.495,37.679-45.532,38.355-46.631C214.797,307.364,213.697,302.746,210.172,300.575z"/>
		<path style="fill:#333333;" d="M254.625,303.027c-2.172-3.526-6.791-4.626-10.316-2.454c-3.527,2.171-4.628,6.79-2.457,10.318    c0.677,1.099,16.81,27.136,38.355,46.631c1.436,1.299,3.235,1.938,5.03,1.938c2.045,0,4.083-0.832,5.563-2.468    c2.779-3.071,2.542-7.814-0.529-10.593C270.351,328.375,254.78,303.278,254.625,303.027z"/>
		<path style="fill:#333333;" d="M227.239,330.46c-4.143,0-7.5,3.358-7.5,7.5v14c0,4.142,3.357,7.5,7.5,7.5s7.5-3.358,7.5-7.5v-14    C234.739,333.818,231.382,330.46,227.239,330.46z"/>
		<path style="fill:#333333;" d="M198.74,205.96v41c0,4.142,3.357,7.5,7.5,7.5s7.5-3.358,7.5-7.5v-41c0-4.142-3.357-7.5-7.5-7.5    S198.74,201.818,198.74,205.96z"/>
		<path style="fill:#333333;" d="M240.738,205.96v41c0,4.142,3.357,7.5,7.5,7.5s7.5-3.358,7.5-7.5v-41c0-4.142-3.357-7.5-7.5-7.5    S240.738,201.818,240.738,205.96z"/>
		<path style="fill:#333333;" d="M150.739,195.46c1.78,0,3.536-0.143,5.261-0.428c3.759,7.978,11.851,13.428,21.239,13.428    c12.958,0,23.5-10.542,23.5-23.5c0-4.142-3.357-7.5-7.5-7.5s-7.5,3.358-7.5,7.5c0,4.687-3.813,8.5-8.5,8.5    c-4.574,0-8.297-3.586-8.475-8.166c-0.098-2.521-1.456-4.824-3.615-6.128c-2.159-1.305-4.829-1.437-7.107-0.351    c-2.288,1.091-4.745,1.645-7.303,1.645c-9.374,0-17-7.626-17-17c0-4.254,1.58-8.326,4.449-11.464    c1.356-1.483,2.061-3.45,1.954-5.457c-0.106-2.008-1.014-3.889-2.52-5.221c-1.859-1.645-2.884-3.903-2.884-6.358    c0-4.687,3.813-8.5,8.5-8.5c0.252,0,0.523,0.014,0.83,0.044c2.579,0.25,5.094-0.849,6.667-2.901    c1.574-2.051,1.98-4.769,1.075-7.19c-0.712-1.904-1.072-3.907-1.072-5.953c0-9.374,7.626-17,17-17    c4.288,0,8.386,1.605,11.536,4.519c1.774,1.641,4.231,2.325,6.598,1.842c2.367-0.485,4.355-2.081,5.342-4.287    c2.736-6.12,8.83-10.074,15.524-10.074c5.747,0,11.066,2.879,14.228,7.701c1.387,2.114,3.745,3.388,6.272,3.388    c2.528,0,4.887-1.274,6.272-3.388c3.161-4.822,8.479-7.701,14.228-7.701c6.694,0,12.788,3.955,15.524,10.074    c0.986,2.206,2.975,3.802,5.343,4.287c2.365,0.485,4.822-0.201,6.597-1.842c3.15-2.914,7.247-4.519,11.536-4.519    c9.374,0,17,7.626,17,17c0,2.046-0.36,4.048-1.072,5.95c-0.906,2.422-0.501,5.14,1.072,7.191c1.574,2.052,4.091,3.153,6.667,2.902    c0.309-0.03,0.581-0.044,0.833-0.044c4.687,0,8.5,3.813,8.5,8.5c0,2.455-1.024,4.713-2.884,6.358    c-1.506,1.332-2.413,3.213-2.52,5.221c-0.106,2.007,0.598,3.974,1.954,5.457c2.869,3.138,4.449,7.21,4.449,11.464    c0,9.374-7.626,17-17,17c-2.558,0-5.015-0.553-7.303-1.645c-2.277-1.086-4.947-0.956-7.107,0.351    c-2.159,1.305-3.518,3.607-3.615,6.128c-0.178,4.579-3.9,8.166-8.475,8.166c-4.687,0-8.5-3.813-8.5-8.5c0-4.142-3.357-7.5-7.5-7.5    s-7.5,3.358-7.5,7.5c0,12.958,10.542,23.5,23.5,23.5c9.389,0,17.48-5.45,21.239-13.428c1.725,0.285,3.48,0.428,5.261,0.428    c17.645,0,32-14.355,32-32c0-2.951-0.409-5.854-1.189-8.641c23.967-7.213,41.032-29.45,41.032-55.289    c0-31.843-25.902-57.75-57.74-57.75c-22.978,0-43.414,13.685-52.602,33.914c-5.107-3.34-11.157-5.234-17.5-5.234    c-7.613,0-14.824,2.679-20.5,7.424c-5.676-4.745-12.887-7.424-20.5-7.424c-9.597,0-18.536,4.314-24.527,11.456    c-4.443-2.257-9.387-3.456-14.473-3.456c-17.645,0-32,14.355-32,32c0,0.737,0.025,1.471,0.075,2.202    c-9.331,3.115-16.075,11.934-16.075,22.298c0,4.35,1.216,8.573,3.445,12.223c-2.895,4.893-4.445,10.495-4.445,16.277    C118.739,181.105,133.095,195.46,150.739,195.46z M317.842,56.78c23.567,0,42.74,19.178,42.74,42.75    c0,17.601-10.685,32.948-26.205,39.447c0.23-1.319,0.362-2.661,0.362-4.018c0-10.365-6.744-19.184-16.075-22.298    c0.05-0.73,0.075-1.465,0.075-2.202c0-17.645-14.355-32-32-32c-2.194,0-4.358,0.236-6.469,0.671    C287.597,65.682,301.891,56.78,317.842,56.78z"/>
		<path style="fill:#333333;" d="M227.239,140.46c-4.143,0-7.5,3.358-7.5,7.5v103c0,4.142,3.357,7.5,7.5,7.5s7.5-3.358,7.5-7.5v-103    C234.739,143.818,231.382,140.46,227.239,140.46z"/>
		<path style="fill:#333333;" d="M183.149,142.263c2.928,2.929,7.677,2.928,10.606,0c2.929-2.929,2.929-7.678-0.001-10.607    c-7.796-7.796-20.484-7.798-28.284,0c-3.777,3.777-5.857,8.8-5.857,14.142c0,5.342,2.08,10.365,5.858,14.143    c1.464,1.464,3.384,2.196,5.303,2.196s3.839-0.732,5.304-2.197c2.929-2.929,2.929-7.678-0.001-10.607    c-0.944-0.944-1.464-2.2-1.464-3.535s0.52-2.591,1.464-3.535C178.028,140.313,181.198,140.313,183.149,142.263z"/>
		<path style="fill:#333333;" d="M276.208,166.636c1.465,1.464,3.384,2.197,5.304,2.197c1.919,0,3.839-0.732,5.303-2.196    c4.926-4.925,7.639-11.474,7.639-18.439c0-6.965-2.713-13.514-7.639-18.439c-10.166-10.166-26.711-10.166-36.877,0    c-2.93,2.929-2.93,7.678-0.001,10.607c2.929,2.928,7.678,2.929,10.606,0c4.32-4.319,11.349-4.318,15.665,0    c2.093,2.092,3.245,4.874,3.245,7.833c0,2.959-1.152,5.74-3.244,7.832C273.279,158.958,273.279,163.707,276.208,166.636z"/>
	</g>
</g>















</svg>
